<svg id="lg-icon" xmlns="http://www.w3.org/2000/svg" xmlns:xlink="http://www.w3.org/1999/xlink" width="66.75" height="45" viewBox="0 0 66.75 45">
  <defs>
    <clipPath id="clip-path">
      <rect id="Rettangolo_38" data-name="Rettangolo 38" width="66.75" height="45" fill="#fff"/>
    </clipPath>
  </defs>
  <g id="Raggruppa_51" data-name="Raggruppa 51" clip-path="url(#clip-path)">
    <path id="Tracciato_43" data-name="Tracciato 43" d="M35.467,8.411a2.418,2.418,0,0,1,.723-1.68A28.306,28.306,0,0,1,43.663.916c.369-.2.829-.277,1.077-.677h.478C46.689,3.461,48.5,6.5,50.155,9.629c1.489,2.815,2.984,5.628,4.544,8.4.467.831.358,1.151-.524,1.527A41.608,41.608,0,0,0,37.737,31.737a27.806,27.806,0,0,0-5.253,9.705,3.243,3.243,0,0,1-.218.553c-.026.052-.133.064-.241.111-.284-.181-.177-.421-.128-.7,1.271-7.152,5.347-12.567,10.645-17.224A47.048,47.048,0,0,1,50.5,18.507c.729-.411.949-.685.51-1.515-2.27-4.293-4.469-8.624-6.693-12.941-.213-.412-.321-.91-1.022-.623A29.842,29.842,0,0,0,35.739,7.9a1.715,1.715,0,0,0-.292.507Z" fill="#fff"/>
    <path id="Tracciato_44" data-name="Tracciato 44" d="M30.794,42.441a58.476,58.476,0,0,0-5.9-3.991c-.607-.345-.49-.842-.49-1.338,0-9.364.129-18.73-.073-28.089-.06-2.776.61-4.462,3.3-5.3a21.244,21.244,0,0,0,3.16-1.6Z" fill="#fff"/>
    <path id="Tracciato_45" data-name="Tracciato 45" d="M22.658,13.134v23.93a33.935,33.935,0,0,0-4.3-1.984c-1.737-.537-2.2-1.469-2.148-3.251.143-5.139.068-10.285.035-15.427a1.163,1.163,0,0,1,.949-1.35c1.81-.571,3.586-1.251,5.462-1.918" fill="#fff"/>
    <path id="Tracciato_46" data-name="Tracciato 46" d="M32.961,42.155c3.641-7.04,9.105-12.081,15.732-15.964a43.214,43.214,0,0,1,9.382-4.127c.731-.22.978-.391.574-1.185Q55.5,14.7,52.469,8.471c-.344-.7-.7-.885-1.331-.461-1.165.78-1.222-.358-1.632-.918-.538-.732.028-.94.527-1.223,3.242-1.843,3.246-1.85,4.936,1.438,2.531,4.926,5.019,9.873,7.6,14.77.569,1.079.308,1.321-.757,1.58A49.263,49.263,0,0,0,38.147,36.682,43.3,43.3,0,0,0,34.1,41.394c-.241.321-.38.812-1.135.761" fill="#fff"/>
    <path id="Tracciato_47" data-name="Tracciato 47" d="M30.718,44.322C20.939,40,11.093,37.676.452,38.615,1.2,36.556,1.89,34.64,2.6,32.73c.272-.737.891-.363,1.337-.324a45.69,45.69,0,0,1,16.805,5.042,57.866,57.866,0,0,1,8.793,5.506,3.018,3.018,0,0,1,1.187,1.368" fill="#fff"/>
    <path id="Tracciato_48" data-name="Tracciato 48" d="M43.332,37.06c2.608-.929,5.085-2.193,7.754-2.97a48.288,48.288,0,0,1,8.766-1.729c.759-.075,1.142.1,1.387.863.557,1.735,1.213,3.439,1.821,5.132-.328.345-.659.195-.946.174-9.754-.689-18.986,1.394-27.892,5.23-.6.261-1.236.679-1.876.046a1.344,1.344,0,0,0,1.1-.319,63.311,63.311,0,0,1,9.886-6.427" fill="#fff"/>
    <path id="Tracciato_49" data-name="Tracciato 49" d="M43.332,37.06a63.311,63.311,0,0,0-9.886,6.427,1.344,1.344,0,0,1-1.1.319c.21-.932,1.189-1.011,1.752-1.568A51.3,51.3,0,0,1,61.176,28.3c1.056-.2,1.066-.518.584-1.259a5.2,5.2,0,0,1-.268-.533c-1.07-2.14-1.032-2.2,1.359-2.5a.632.632,0,0,1,.771.361c1.056,2.128,2.121,4.252,3.269,6.549-2-.012-3.818-.016-5.628.154a46.82,46.82,0,0,0-17.608,5.661c-.13.069-.216.222-.323.336" fill="#fff"/>
    <path id="Tracciato_50" data-name="Tracciato 50" d="M14.571,24.215V33.43c-2.016-.521-3.987-1.048-5.968-1.53-.52-.127-.442-.474-.443-.818-.005-1.194.008-2.389-.006-3.583-.005-.428.041-.749.521-.934,1.922-.743,3.83-1.523,5.9-2.35" fill="#fff"/>
    <path id="Tracciato_51" data-name="Tracciato 51" d="M35.447,8.411l-.29.035a.445.445,0,0,0,.035.067c.092-.031.182-.067.274-.1h-.019" fill="#fff"/>
  </g>
</svg>
