<?xml version="1.0" encoding="UTF-8"?>
<svg id="Livello_2" data-name="Livello 2" xmlns="http://www.w3.org/2000/svg" xmlns:xlink="http://www.w3.org/1999/xlink" viewBox="0 0 238.82 243.47">
  <defs>
    <style>
      .cls-1 {
        clip-path: url(#clippath);
      }

      .cls-2 {
        fill: none;
      }

      .cls-2, .cls-3, .cls-4, .cls-5, .cls-6, .cls-7, .cls-8 {
        stroke-width: 0px;
      }

      .cls-9 {
        clip-path: url(#clippath-3);
      }

      .cls-10 {
        clip-path: url(#clippath-2);
      }

      .cls-3 {
        fill: #95354c;
      }

      .cls-4 {
        fill: #3d214b;
      }

      .cls-5 {
        fill: #351e54;
      }

      .cls-6 {
        fill: #16130e;
      }

      .cls-7 {
        fill: #8e334f;
      }

      .cls-8 {
        fill: #933e56;
      }
    </style>
    <clipPath id="clippath">
      <rect class="cls-2" x="31.01" y="38.87" width="176.25" height="165"/>
    </clipPath>
    <clipPath id="clippath-2">
      <rect class="cls-2" x="86.03" y="96.61" width="66.75" height="45"/>
    </clipPath>
    <clipPath id="clippath-3">
      <rect class="cls-2" x="86.03" y="96.61" width="66.75" height="45"/>
    </clipPath>
  </defs>
  <g id="Livello_1-2" data-name="Livello 1">
    <g>
      <g class="cls-1">
        <path class="cls-7" d="m88.56,185.26l-1.62-.79c-.26-.12-.53-.27-.76-.4-.11-.06-.22-.12-.32-.17l-.49-.27c-.08-.04-.17-.05-.26-.03-.09.03-.16.09-.2.17l-5.21,9.62c-.09.17-.03.37.14.46l.57.31c.11.06.22.12.35.19.28.15.6.33.92.48l1.87.91s.04.02.06.02c.07.02.14.02.2,0,.09-.03.16-.09.2-.18l4.71-9.88c.08-.17,0-.37-.16-.46m-5.02,9.73l-1.56-.76c-.31-.15-.62-.32-.89-.46-.13-.07-.25-.14-.36-.19l-.27-.15,4.88-9.02.2.11c.1.05.2.11.31.17.24.13.51.28.8.42l1.31.64-4.42,9.26Zm11.82-6.89l-2.29-.84-1.05-.44c-.08-.04-.18-.04-.26,0-.08.03-.15.1-.18.19l-4.18,10.11c-.07.17.01.37.18.45l1.22.51,2.66.98s.02,0,.02,0c.08.02.16.02.24-.02.08-.04.15-.11.18-.19l3.67-10.31c.06-.18-.03-.37-.2-.44Zm-3.99,10.19l-2.32-.86-.9-.38,3.92-9.48.74.32,1.99.73-3.44,9.67Zm11.03-8.08l-2.37-.61c-.13-.03-.25-.07-.36-.11-.06-.02-.12-.04-.18-.06l-.53-.17c-.09-.03-.18-.02-.26.03-.08.04-.14.12-.17.2l-3.12,10.49c-.05.18.05.37.23.43l.62.19c.06.02.13.04.2.06.11.03.22.07.34.1.04,0,.07.02.1.03l2.74.7c.09.02.18,0,.26-.04.08-.05.14-.12.16-.21l2.6-10.63c.04-.18-.07-.38-.25-.41Zm-5.32,9.93c-.15-.04-.29-.08-.42-.12-.07-.02-.14-.04-.2-.06l-.29-.09,2.92-9.84.21.06c.05.02.11.03.17.05.12.04.25.08.39.12l2.05.53-2.43,9.97-2.4-.62Zm24.61-7.59c0-.09-.04-.18-.11-.24-.07-.06-.16-.1-.25-.09h-.16c-.09.01-.22.01-.38.01h-3.03c-.19,0-.34.15-.34.34l-.22,10.95c0,.09.03.18.1.25.04.04.09.07.15.09.03,0,.06.01.09.01h3.5c.24,0,.38,0,.49-.02h.18c.19-.02.33-.17.33-.36l-.34-10.94Zm-.65,10.63h-3.15s.21-10.26.21-10.26h2.7c.09,0,.17,0,.23,0l.32,10.26c-.1,0-.21,0-.3,0Zm8.03-11.29c-.01-.09-.06-.17-.13-.23-.07-.06-.17-.08-.26-.07l-.56.08c-.21.03-.47.06-.75.08-.15.01-.31.03-.46.05l-1.79.18c-.19.02-.32.18-.31.37l.92,10.91c0,.09.05.18.12.23.04.03.08.05.12.07.04.01.08.02.13.01l2.07-.21c.17-.02.34-.04.51-.05.34-.03.66-.07.92-.11l.64-.1c.18-.03.31-.2.29-.38l-1.48-10.85Zm.45,10.65c-.25.04-.56.07-.89.1-.17.02-.34.03-.51.05l-1.72.17-.86-10.23,1.46-.15c.15-.02.31-.03.46-.05.29-.03.56-.06.78-.09l.21-.03,1.38,10.17-.31.05Zm6.81-12.07c-.02-.09-.08-.16-.16-.21-.08-.05-.17-.06-.26-.04l-.55.14c-.29.08-.74.19-1.19.27l-1.76.35c-.18.04-.3.22-.27.4l2.06,10.75c.02.09.07.17.14.22.03.02.06.04.1.05.05.01.11.02.16,0l2.03-.41c.54-.1,1.08-.24,1.41-.32l.63-.16c.18-.05.29-.23.25-.41l-2.6-10.63Zm1.55,10.54c-.32.08-.85.22-1.37.31l-1.7.34-1.93-10.08,1.43-.29c.46-.09.92-.2,1.22-.28l.21-.05,2.43,9.97-.3.07Zm5.52-12.71c-.06-.18-.26-.27-.44-.21l-1.68.6-1.72.53c-.18.05-.28.25-.23.43l3.16,10.48c.03.09.09.16.17.2.02.01.04.02.07.03.06.02.13.02.19,0l2-.61,1.95-.69c.09-.03.15-.09.19-.18.04-.08.04-.18.01-.26l-3.68-10.31Zm1.31,10.79l-1.65.51-2.96-9.82,1.41-.43,1.37-.49,3.45,9.66-1.62.57Zm5.49-13.68c-.08-.17-.28-.24-.45-.16l-1.62.76c-.07.03-.15.07-.22.1-.13.06-.25.12-.37.17l-1.05.44c-.08.03-.15.1-.19.19-.03.08-.03.18,0,.26l4.23,10.09c.04.1.13.17.22.2.07.02.15.02.23-.01l1.21-.51c.15-.06.31-.14.46-.21.08-.04.16-.07.24-.11l1.87-.88c.08-.04.15-.11.18-.19.03-.09.03-.18-.01-.26l-4.73-9.87Zm2.41,10.59c-.08.04-.16.08-.25.11-.15.07-.29.14-.44.2l-.89.37-3.96-9.46.73-.3c.13-.06.26-.12.4-.18.07-.03.14-.07.21-.1l1.32-.62,4.43,9.25-1.56.73Zm4.07-14.16c-.1-.16-.3-.21-.46-.12l-1.54.92c-.13.08-.26.16-.39.23-.24.15-.48.28-.66.39l-.5.26c-.08.04-.14.12-.17.2-.03.09-.02.18.03.26l8.03,14.7c.05.08.12.14.21.17.08.02.17.02.25-.03l.62-.33c.26-.14.58-.33.91-.53l2.31-1.37c.08-.05.13-.12.16-.21.02-.09,0-.18-.04-.26l-8.76-14.28Zm5.98,15.54c-.33.2-.64.38-.9.52l-.31.17-7.7-14.1.2-.1c.19-.11.43-.25.68-.4.13-.08.26-.15.39-.23l1.26-.75,8.4,13.7-2.02,1.19Zm-86.29-19.47c-.01-.09-.06-.17-.13-.23l-.44-.34c-.09-.07-.2-.15-.31-.23-.21-.16-.44-.33-.66-.52l-1.38-1.16c-.14-.12-.36-.1-.48.04l-7.07,8.35c-.06.07-.09.16-.08.25,0,.09.05.17.12.23l1.59,1.34c.27.23.55.44.8.63.12.09.23.18.33.26l.52.4s.07.04.11.06c.13.04.28,0,.36-.12l6.64-8.7c.05-.07.08-.16.07-.25Zm-7.04,8.26l-.24-.18c-.1-.08-.22-.17-.34-.26-.24-.18-.52-.39-.78-.61l-1.33-1.12,6.62-7.82,1.12.94c.23.2.48.38.69.54.11.08.21.16.3.23l.18.13-6.22,8.15Zm12.98-4.32l-1.53-.95c-.24-.15-.49-.32-.7-.47-.11-.08-.22-.15-.32-.22l-.46-.32c-.07-.05-.17-.07-.26-.05-.09.02-.17.07-.22.14l-9.43,13.85c-.11.16-.07.37.09.48l.58.4c.11.07.23.16.36.25.28.19.59.41.92.61l1.89,1.17s.06.03.09.04c.05.02.11.02.17,0,.09-.02.16-.08.21-.15l8.71-14.31c.1-.16.05-.37-.11-.47Zm-9,14.13l-1.6-.99c-.31-.2-.62-.41-.89-.59-.13-.09-.26-.18-.37-.25l-.29-.2,9.04-13.28.18.13c.09.06.2.14.31.21.22.15.47.32.73.49l1.24.77-8.36,13.73Zm102.52-15.25l-7.51-7.94c-.06-.07-.15-.11-.24-.11-.09,0-.18.03-.24.1l-.4.39c-.16.15-.36.33-.58.52l-1.68,1.49c-.14.12-.15.34-.03.48l7.1,8.32c.04.05.1.09.17.11.02,0,.04.01.07.01.09,0,.18-.02.25-.08l1.9-1.69c.27-.24.52-.46.73-.66l.47-.45c.13-.13.14-.34,0-.48Zm-.95.44c-.2.18-.45.41-.71.64l-1.64,1.45-6.66-7.8,1.43-1.27c.22-.19.43-.38.6-.54l.15-.15,7.04,7.45-.22.21Zm6.8-6.67l-8.3-7.12c-.07-.06-.16-.09-.25-.08-.09,0-.18.05-.23.12l-.66.78-1.73,1.88c-.13.14-.12.35.02.48l7.93,7.53s.09.07.14.08c.03.01.07.01.1.01.09,0,.18-.04.24-.11l1.41-1.53.52-.57.85-1.01c.12-.14.11-.36-.04-.48Zm-1.32,1.03l-1.69,1.83-7.43-7.06,1.45-1.57.51-.61,7.78,6.67-.62.73Zm6.5-7.85l-9-6.21c-.07-.05-.17-.07-.25-.05-.09.02-.17.07-.22.14l-.32.46c-.06.09-.14.2-.21.31-.15.22-.31.46-.48.69l-1.09,1.43c-.11.15-.08.37.07.48l8.67,6.66s.07.05.12.06c.04.01.09.02.14.01.09-.01.17-.06.23-.13l1.26-1.66c.21-.29.41-.58.59-.84.08-.12.16-.24.23-.34l.37-.53c.11-.16.07-.37-.09-.48Zm-.84.62c-.07.1-.15.22-.24.34-.18.25-.37.54-.57.82l-1.05,1.38-8.12-6.24.89-1.17c.18-.25.35-.49.5-.72.07-.11.15-.21.21-.31l.12-.18,8.43,5.82-.17.25Zm5.28-7.94l-9.59-5.23c-.16-.09-.37-.03-.46.14l-.87,1.58c-.14.25-.29.5-.43.72-.07.12-.14.23-.2.32l-.29.48c-.05.08-.06.17-.04.26.02.09.08.16.15.21l9.32,5.71s.06.03.09.04c.14.04.3-.02.38-.15l.34-.56c.06-.11.14-.23.22-.36.16-.26.35-.57.52-.88l1-1.82c.04-.08.05-.17.03-.26-.03-.09-.08-.16-.17-.2Zm-1.46,1.96c-.16.29-.34.59-.5.85-.08.13-.16.26-.22.37l-.16.26-8.73-5.36.12-.19c.06-.1.12-.2.19-.32.14-.23.3-.49.45-.76l.7-1.28,8.99,4.9-.84,1.52Zm5.11-9.7l-10.09-4.2c-.18-.07-.37,0-.44.18l-.7,1.65c-.03.07-.06.15-.1.22-.05.13-.11.26-.16.37l-.49,1.03c-.04.08-.04.18-.01.26.03.09.09.15.18.2l9.86,4.7s.04.01.06.02c.16.04.33-.03.4-.18l.57-1.19c.07-.15.14-.31.2-.47.04-.08.07-.16.11-.24l.81-1.91c.04-.09.04-.18,0-.26-.04-.08-.1-.15-.19-.19Zm-1.26,2.09c-.04.08-.07.17-.11.25-.07.15-.13.3-.19.44l-.42.88-9.24-4.41.35-.72c.06-.13.12-.26.18-.4.03-.07.06-.14.09-.22l.57-1.35,9.46,3.93-.68,1.59Zm4.08-10.14l-10.46-3.13c-.18-.04-.37.05-.43.23l-.73,2.35c-.04.12-.08.24-.12.35-.02.06-.05.12-.06.18l-.19.53c-.03.08-.03.18.01.26.04.08.11.15.19.18l10.29,3.65s.01,0,.02,0c.17.05.35-.04.41-.21l.22-.61c.02-.06.05-.13.07-.19.05-.14.1-.29.15-.44l.84-2.71c.03-.09.02-.18-.02-.26-.04-.08-.12-.14-.2-.17Zm-1.26,2.93c-.05.15-.1.29-.14.41-.03.07-.05.14-.07.2l-.11.29-9.65-3.42.08-.21c.02-.05.04-.11.06-.17.04-.12.09-.25.13-.38l.63-2.02,9.81,2.94-.74,2.37Zm-77.22,41.67s-.63,0-1.26,0c-.32,0-.63,0-.87-.02-.24-.01-.39-.02-.39-.02l.12-3.19s.15,0,.38.02c.23.01.53.03.83.02.6,0,1.2,0,1.2,0v3.19Zm1.56-3.2l2.4-.12.2,3.19-2.52.13-.08-3.19Zm3.97-.24l2.39-.24.4,3.17-2.51.26-.28-3.18Zm6.32-.88l.6,3.14s-.16.03-.39.08c-.23.05-.54.11-.86.15-.62.09-1.25.19-1.25.19l-.48-3.16s.6-.09,1.19-.18c.3-.04.59-.1.81-.15.22-.04.37-.07.37-.07Zm2.21,2.81l-.67-3.12s.15-.03.37-.07c.22-.04.51-.12.81-.19.58-.15,1.16-.29,1.16-.29l.79,3.09s-.61.16-1.22.31c-.31.08-.61.16-.85.2-.23.05-.39.08-.39.08Zm4.05-1l-.86-3.07,2.3-.7.97,3.04-2.41.74Zm3.97-1.27l-1.05-3.02s.56-.2,1.13-.4c.28-.1.57-.2.78-.28.21-.09.35-.14.35-.14l1.16,2.97s-.15.06-.37.15c-.22.08-.52.19-.82.29-.6.21-1.19.42-1.19.42Zm3.89-1.5l-1.23-2.95s.55-.23,1.11-.46c.54-.25,1.09-.51,1.09-.51l1.34,2.9s-.57.27-1.14.54c-.58.24-1.17.48-1.17.48Zm3.8-1.72l-1.41-2.86s.14-.06.34-.16c.2-.11.47-.25.73-.39.53-.28,1.06-.56,1.06-.56l1.51,2.81s-.56.3-1.11.59c-.28.15-.56.3-.77.41-.21.11-.35.17-.35.17Zm16.53-16l2.29,2.22s-.11.12-.27.29c-.17.17-.39.39-.62.61-.45.44-.9.88-.9.88l-2.21-2.3s.43-.42.86-.84c.22-.21.43-.42.59-.58.15-.16.26-.27.26-.27Zm3.41,1.01l-2.35-2.16s.41-.44.82-.89c.39-.46.78-.92.78-.92l2.42,2.07s-.41.48-.81.97c-.43.46-.86.93-.86.93Zm2.73-3.16l-2.47-2.01s.1-.11.24-.29c.14-.18.32-.42.5-.66.36-.48.73-.96.73-.96l2.55,1.92s-.38.5-.77,1.01c-.19.25-.38.5-.52.69-.15.18-.25.3-.25.3Zm2.52-3.33l-2.6-1.85,1.36-1.99,2.66,1.75-1.43,2.09Zm-102.7,8.81c-.17-.17-.28-.28-.28-.28l2.26-2.25s.11.11.26.27c.16.16.36.39.59.58.44.41.88.82.88.82l-2.17,2.33s-.46-.43-.93-.86c-.24-.21-.45-.45-.61-.61Zm3.04,2.86c-.18-.15-.3-.26-.3-.26l2.12-2.39s.11.1.28.25c.17.15.4.34.63.53.46.39.92.78.92.78l-2.02,2.47s-.48-.41-.97-.82c-.24-.2-.48-.41-.66-.56Zm4.92,3.94l-2.01-1.53,1.96-2.52,1.91,1.46-1.87,2.59Zm2.4,1.65c-.52-.36-1.04-.72-1.04-.72l1.8-2.63s.5.34.99.68c.12.09.25.17.37.25.12.07.23.14.33.2.19.12.32.2.32.2l-1.7,2.7s-.13-.08-.34-.21c-.1-.06-.22-.13-.34-.21-.12-.08-.25-.17-.38-.26Zm3.55,2.19c-.28-.15-.55-.31-.75-.44-.2-.12-.34-.21-.34-.21l1.64-2.74s.13.08.32.2c.19.12.45.28.71.42.53.29,1.05.58,1.05.58l-1.53,2.8s-.55-.3-1.11-.61Zm4.01-1.43l2.16,1.06-1.36,2.89-2.27-1.11,1.46-2.84Zm4.63,5.62l-2.32-.99,1.29-2.92,2.21.94-1.18,2.97Zm3.78-2.01c.56.22,1.14.39,1.14.39l-.99,3.03s-.61-.18-1.19-.41c-.59-.22-1.19-.43-1.19-.43l1.11-2.99s.56.21,1.13.41Zm2.92,4.28c-.6-.19-1.2-.37-1.2-.37l.92-3.06s.57.18,1.15.36c.58.15,1.16.3,1.16.3l-.81,3.09s-.61-.16-1.22-.31Zm5.84-14.63l-1.41-.36c-.21-.05-.43-.12-.62-.18-.11-.04-.22-.07-.31-.1l-.43-.13c-.09-.03-.18-.02-.26.02-.08.04-.14.12-.17.2l-1.55,5.07c-.05.18.05.37.23.43l.48.15c.1.03.21.06.32.1.16.05.32.1.49.15.08.02.16.04.24.06l1.54.39c.09.02.18,0,.26-.04.08-.05.13-.12.15-.21l1.28-5.15c.04-.18-.07-.37-.25-.41Zm-2.83,4.75c-.24-.06-.48-.13-.69-.2-.12-.04-.24-.08-.34-.1l-.15-.05,1.35-4.42.11.04c.09.03.19.06.29.09.2.07.43.14.67.2l1.08.27-1.11,4.48-1.22-.31Zm4.25,1.7s.02,0,.02,0l.55.11c.29.06.66.14,1.04.18l1.57.24c.09.01.18,0,.26-.07.07-.05.12-.14.13-.23l.73-5.25c.02-.19-.1-.36-.29-.39l-1.44-.21c-.32-.04-.64-.11-.89-.16l-.5-.1c-.09-.02-.18,0-.26.05-.08.05-.13.13-.15.22l-1.02,5.2c-.03.18.07.35.24.4Zm1.54-5.1c.27.06.6.13.94.17l1.09.16-.64,4.57-1.24-.19c-.36-.04-.71-.12-.99-.18l-.22-.04.89-4.53.16.03Zm-13.36-5.14l-.4-.19c-.08-.04-.18-.09-.28-.14-.18-.09-.4-.19-.6-.31l-1.26-.7c-.16-.09-.37-.03-.46.13l-2.58,4.63c-.04.08-.06.17-.03.26.03.09.08.16.16.21l1.38.76c.24.14.49.26.71.36.1.05.2.1.29.14l.45.22s.04.01.06.02c.16.05.32-.03.4-.18l2.32-4.76c.04-.08.04-.18.02-.26-.03-.09-.09-.16-.17-.2Zm-2.63,4.61l-.14-.07c-.09-.05-.19-.09-.31-.15-.21-.1-.44-.21-.66-.34l-1.09-.6,2.25-4.03.96.53c.22.13.45.24.64.33.1.04.18.09.27.13l.1.05-2.02,4.15Zm6.38-2.94l-1.33-.57c-.18-.07-.37,0-.45.18l-2.08,4.88c-.04.08-.04.18,0,.26.03.08.1.15.18.19l1.48.63,1.5.55s.01,0,.02,0c.08.02.16.01.24-.02.08-.04.15-.11.18-.19l1.81-4.98c.03-.09.03-.18-.01-.26-.04-.08-.11-.15-.19-.18l-1.34-.49Zm-.79,5.36l-1.16-.42-1.15-.49,1.81-4.25,1.03.44,1.04.38-1.57,4.34Zm14.68,3.71c-.02.17.09.31.25.36.02,0,.04.01.06.01l.48.05c.22.03.48.04.75.05.12,0,.24.01.37.02l1.59.08c.09,0,.18-.03.25-.09.07-.06.11-.15.11-.24l.17-5.3c0-.19-.14-.34-.32-.35l-1.44-.07c-.12,0-.23-.01-.35-.02-.23,0-.45-.02-.63-.04l-.45-.05c-.09,0-.18.02-.25.08-.07.06-.12.14-.12.23l-.46,5.28Zm1.2-4.87c.2.03.43.04.68.05.11,0,.22,0,.34.01l1.11.05-.14,4.62-1.24-.06c-.13,0-.25-.01-.37-.02-.26-.01-.5-.02-.7-.05l-.16-.02.4-4.6h.09Zm18.28,3.33c.03.12.12.21.24.24.05.02.11.02.17,0l.47-.12c.26-.06.58-.16.92-.26l1.68-.51c.09-.03.16-.09.2-.17.04-.08.05-.18.02-.26l-1.62-5.05c-.06-.18-.25-.28-.42-.22l-1.54.47c-.29.09-.56.17-.78.22l-.44.11c-.09.02-.17.08-.21.16-.05.08-.06.17-.04.26l1.34,5.13Zm-.5-4.99c.24-.05.52-.14.83-.23l1.22-.37,1.41,4.4-1.35.41c-.32.1-.63.19-.87.25l-.15.04-1.17-4.47.09-.02Zm6.93,3.21s.03.01.04.01c.07.02.15.02.22-.01l2.5-1.04.45-.21c.17-.08.24-.28.16-.45l-2.18-4.83c-.04-.08-.11-.15-.19-.18-.09-.03-.18-.03-.26.01l-.39.19-2.26.93c-.17.07-.26.27-.19.44l1.91,4.95c.03.08.1.15.18.19Zm.63-5.88l.09-.04,1.9,4.21-2.29.96-1.66-4.31,1.96-.81Zm5.37,3.17s0,0,0,0c.08.02.17.01.25-.03l1.42-.75,1.37-.81c.08-.05.13-.12.16-.21.02-.09,0-.18-.04-.26l-2.71-4.56c-.1-.16-.31-.22-.47-.12l-1.23.73-1.28.68c-.17.09-.23.29-.14.46l2.45,4.7c.04.08.11.14.2.17Zm-.9-5.41l.95-.57,2.36,3.97-1.06.63-1.11.59-2.14-4.09.99-.52Zm6.53,2.04c.09.03.19.01.28-.04l.42-.28c.16-.11.35-.24.54-.39.11-.08.23-.17.35-.26l1.29-.94c.07-.05.12-.14.14-.23.01-.09-.01-.18-.07-.26l-3.2-4.22c-.11-.15-.32-.18-.47-.07l-1.17.85c-.11.08-.23.17-.34.25-.17.12-.33.24-.46.33l-.38.25c-.08.05-.13.13-.15.22-.02.09,0,.18.05.26l2.97,4.39c.05.07.12.12.19.14Zm-2.3-4.68c.14-.1.31-.22.48-.35.11-.08.22-.16.33-.24l.9-.66,2.79,3.68-1,.73c-.12.09-.24.18-.36.26-.19.14-.37.27-.52.37l-.14.09-2.58-3.82.09-.06Zm7.51.7s.04.01.07.01c.09,0,.18-.03.25-.09l1.19-1.06c.08-.07.16-.15.25-.22.22-.19.42-.37.57-.53l.36-.35c.13-.13.14-.35,0-.48l-3.66-3.83c-.06-.07-.15-.1-.24-.11-.09,0-.18.03-.24.1l-.33.32c-.12.13-.3.28-.48.44-.08.07-.16.14-.23.21l-1.08.96c-.14.12-.16.34-.03.48l3.44,4.03c.04.05.1.09.17.11Zm-2.04-5.06c.08-.07.15-.14.23-.2.19-.17.38-.34.52-.48l.08-.07,3.18,3.34-.12.12c-.14.15-.33.32-.54.5-.08.07-.17.15-.25.22l-.93.83-3-3.51.83-.74Zm6.76.51s.07.01.11.01c.09,0,.18-.04.24-.11l.34-.37c.07-.08.15-.16.23-.25.16-.17.34-.36.51-.57l1.02-1.22c.06-.07.09-.16.08-.25,0-.09-.05-.17-.12-.23l-4.07-3.39c-.15-.12-.36-.1-.48.04l-.93,1.11c-.14.17-.3.33-.44.48-.08.09-.16.17-.22.24l-.31.33c-.06.07-.09.15-.09.25,0,.09.04.18.11.24l3.88,3.61s.09.06.14.08Zm-3.22-4.04c.06-.07.14-.15.21-.23.15-.15.31-.33.46-.51l.71-.85,3.54,2.95-.8.96c-.16.19-.33.38-.49.54-.09.09-.17.18-.24.26l-.11.11-3.37-3.14.08-.08Zm8.57-5.35c.08-.14.17-.28.26-.42l.68-1.11,1.1-1.98c.04-.08.05-.17.03-.26-.03-.09-.09-.16-.17-.2l-2.07-1.12c-.16-.09-.37-.03-.46.14l-.76,1.39-.93,1.54c-.08.14-.17.27-.25.41-.14.23-.27.44-.4.64l-1.22,1.78c-.11.15-.07.36.08.47l1.91,1.37s.07.04.11.05c.05.01.1.02.15,0,.09-.02.17-.07.22-.15l1.27-1.85c.15-.23.3-.47.44-.7Zm-.58-.35c-.15.24-.28.46-.42.67l-1.07,1.57-1.36-.97,1.03-1.5c.14-.21.28-.45.42-.67.08-.13.16-.27.25-.4l.82-1.33.73-1.33,1.47.79-.62,1.14-.97,1.61c-.09.14-.18.28-.26.42Zm-43.74,13.55c-.41.02-.82.04-1.23.06-.83.07-1.66.03-2.51.05-.42.02-.85-.02-1.27-.04-.42-.02-.85-.04-1.28-.06-.43-.04-.85-.09-1.28-.13l-.64-.06c-.11-.01-.21-.02-.32-.03l-.32-.05c-3.4-.46-6.8-1.35-9.83-2.5-3.03-1.14-5.7-2.55-7.87-3.94-.14-.08-.27-.16-.41-.25-.13-.09-.26-.18-.38-.27-.25-.18-.5-.34-.74-.51-.24-.17-.48-.32-.7-.49-.22-.17-.44-.34-.64-.5-.21-.16-.41-.31-.6-.46-.1-.07-.19-.15-.29-.22-.09-.07-.18-.15-.27-.22-.35-.29-.66-.56-.95-.8-.15-.12-.28-.23-.41-.34-.12-.11-.24-.22-.34-.32-.21-.2-.39-.37-.54-.51-.3-.27-.46-.42-.46-.42l.79-.82s.15.14.44.41c.14.14.32.3.53.5.1.1.21.2.33.31.13.1.26.21.4.33.28.24.59.5.93.78.08.07.17.15.26.22.09.07.19.14.28.21.19.14.38.29.59.45.2.15.41.32.62.48.21.17.45.31.69.47.23.16.48.33.72.5.12.09.25.17.37.26.13.09.26.16.4.24,2.11,1.36,4.71,2.73,7.66,3.84,2.95,1.12,6.26,1.98,9.57,2.43l.31.05c.1.02.21.02.31.03l.62.06c.42.04.83.08,1.25.13.42.02.83.04,1.24.05.41.02.82.06,1.24.04.82-.01,1.64.03,2.44-.05.4-.02.8-.04,1.2-.06.4-.04.79-.08,1.18-.12,3.12-.32,5.99-.97,8.39-1.74.15-.04.3-.09.45-.13.15-.04.29-.1.43-.15.28-.1.56-.2.83-.3.27-.1.54-.18.79-.28.25-.11.49-.21.73-.31.24-.1.47-.19.69-.28.22-.09.44-.17.63-.27.4-.19.77-.36,1.1-.52.17-.08.32-.15.47-.22.15-.07.28-.15.41-.22.25-.13.47-.25.64-.34.35-.18.54-.28.54-.28l.55,1s-.19.1-.55.29c-.18.1-.4.21-.66.35-.13.07-.27.15-.42.22-.15.07-.32.15-.49.22-.34.16-.72.34-1.13.54-.2.1-.42.19-.65.28-.23.09-.46.19-.71.29-.24.1-.49.21-.75.32-.26.1-.53.19-.81.29-.28.1-.56.2-.85.31-.15.05-.29.11-.44.16-.15.04-.3.09-.46.13-2.46.79-5.41,1.46-8.61,1.79-.4.04-.8.09-1.21.12Zm-13.53,1.31c-.53-.14-1.14-.3-1.8-.46-2.62-.73-6.05-1.94-9.22-3.64-.39-.22-.79-.44-1.18-.65-.2-.11-.39-.21-.59-.32-.19-.12-.38-.24-.56-.35-.38-.23-.75-.46-1.12-.69-.19-.11-.36-.24-.54-.36-.18-.12-.35-.24-.52-.36-.35-.24-.69-.47-1.02-.7-.32-.25-.64-.49-.94-.73-.3-.24-.61-.45-.89-.68-.28-.24-.54-.46-.8-.68-.26-.22-.51-.42-.74-.62-.23-.2-.44-.41-.64-.6-.4-.37-.75-.7-1.04-.96-.55-.57-.86-.89-.86-.89l.82-.79s.31.32.84.87c.28.26.62.58,1.02.94.2.18.4.38.62.58.23.19.47.4.72.61.25.21.51.43.78.67.27.22.57.44.87.67.3.23.6.47.92.71.33.22.66.45,1,.68.17.12.34.24.51.35.17.12.34.24.53.35.36.22.72.44,1.09.67.18.11.37.23.55.35.19.1.38.21.57.31.38.21.77.42,1.15.64,3.09,1.66,6.44,2.84,8.99,3.55.64.16,1.23.31,1.76.45.52.12.99.2,1.36.28.38.08.68.14.88.18.2.05.31.06.31.06l-.19,1.12s-.11,0-.32-.06c-.21-.04-.51-.1-.9-.19-.39-.08-.86-.16-1.4-.29Zm17.72,16.67c-3.52.44-7.01.52-10.38.36-3.37-.17-6.62-.58-9.64-1.25-.38-.08-.76-.15-1.13-.23-.37-.1-.74-.19-1.1-.28-.73-.19-1.45-.36-2.15-.56-1.39-.44-2.75-.81-4-1.31-5.08-1.84-9.05-4.02-11.71-5.7-.33-.21-.65-.4-.95-.59-.29-.2-.56-.39-.81-.56-.5-.35-.93-.64-1.28-.88-.17-.12-.33-.22-.46-.32-.13-.1-.24-.18-.32-.25-.17-.13-.26-.2-.26-.2l.68-.92s.09.07.26.2c.08.07.19.15.32.24.13.1.28.19.45.31.34.23.76.52,1.26.86.25.17.51.35.8.55.29.18.6.37.93.57,2.61,1.65,6.5,3.79,11.49,5.59,1.23.49,2.57.85,3.93,1.29.68.2,1.4.36,2.11.55.36.09.72.18,1.08.28.37.08.74.15,1.11.23,2.97.66,6.15,1.06,9.46,1.22,3.31.16,6.74.08,10.19-.35,3.45-.43,6.92-1.16,10.3-2.19,3.38-1.03,6.67-2.36,9.78-3.93,3.11-1.56,6.02-3.4,8.68-5.38,2.66-1.98,5.08-4.09,7.21-6.26.53-.54,1.03-1.1,1.54-1.64.25-.27.51-.53.74-.81.23-.28.46-.55.69-.83.23-.27.46-.55.68-.81.23-.27.45-.53.66-.81.42-.55.82-1.09,1.23-1.62.1-.13.2-.26.3-.39.09-.14.19-.27.28-.4.18-.27.37-.53.54-.79.18-.26.36-.52.53-.78.18-.26.35-.51.51-.77.32-.52.62-1.02.92-1.5.15-.24.3-.49.44-.72.14-.24.27-.48.4-.72,1.07-1.88,1.87-3.58,2.52-4.98.3-.71.57-1.35.8-1.9.12-.28.23-.53.32-.77.09-.24.17-.46.24-.65.29-.78.44-1.2.44-1.2l1.07.38s-.15.42-.44,1.22c-.07.2-.15.42-.24.67-.09.24-.21.5-.33.79-.24.56-.51,1.21-.82,1.94-.66,1.43-1.48,3.16-2.57,5.07-.13.24-.26.49-.4.73-.15.24-.3.49-.45.73-.31.5-.62,1.01-.94,1.53-.16.27-.34.52-.52.78-.18.26-.36.52-.54.79s-.37.54-.56.81c-.09.14-.19.27-.28.41-.1.13-.2.27-.31.4-.41.54-.83,1.09-1.25,1.65-.21.28-.44.55-.67.83-.23.27-.46.55-.7.83-.23.28-.47.56-.71.84-.24.28-.5.55-.76.83-.52.55-1.02,1.12-1.56,1.67-2.17,2.21-4.64,4.36-7.35,6.38-2.71,2.01-5.67,3.89-8.84,5.47-3.16,1.6-6.51,2.95-9.96,4-3.44,1.05-6.98,1.8-10.49,2.23Zm19.24-31.14c-2.16,1.92-4.54,3.6-6.91,4.93-2.36,1.34-4.71,2.33-6.76,3.02-.13.05-.25.09-.38.14-.13.04-.25.08-.38.11-.25.08-.49.15-.73.22-.23.07-.46.14-.69.21-.22.07-.45.11-.66.16-.43.11-.83.21-1.19.31-.37.09-.71.14-1.02.21-.31.07-.59.12-.82.17-.24.06-.45.07-.61.1-.33.05-.51.07-.51.07l-.17-1.13s.17-.03.5-.07c.16-.03.36-.04.6-.1.23-.05.5-.1.8-.16.3-.06.63-.12.99-.2.36-.1.74-.2,1.16-.3.21-.05.42-.1.64-.16.22-.07.44-.14.67-.21.23-.07.46-.14.71-.21.12-.04.24-.07.37-.11.12-.05.24-.09.37-.14,1.99-.67,4.27-1.64,6.57-2.94,2.3-1.3,4.61-2.93,6.72-4.79,2.11-1.86,4-3.94,5.56-6.05,1.56-2.11,2.79-4.23,3.7-6.12.49-.93.82-1.84,1.17-2.62.3-.81.55-1.51.77-2.09.35-1.19.58-1.86.58-1.86l1.09.31s-.23.69-.59,1.92c-.22.6-.48,1.32-.79,2.15-.36.8-.71,1.74-1.21,2.7-.94,1.95-2.2,4.14-3.81,6.31-1.6,2.17-3.55,4.31-5.72,6.22Zm3.68,6.99l-2.01-2.48s.33-.26.65-.52c.31-.28.62-.56.62-.56l2.1,2.4s-.33.3-.67.6c-.35.28-.7.56-.7.56Zm-2.13,1.64l-1.87-2.58s.34-.25.68-.49c.09-.06.17-.12.25-.18.08-.06.15-.12.21-.17.12-.1.2-.17.2-.17l1.96,2.51s-.09.07-.22.18c-.07.05-.14.12-.22.18-.09.06-.18.13-.27.19-.36.26-.73.53-.73.53Zm4.34-3.54l-3.77-4.11s.07-.07.19-.16c.11-.11.25-.24.39-.38.28-.28.56-.55.56-.55l3.92,3.97s-.32.31-.64.63c-.16.16-.32.32-.44.43-.13.11-.21.19-.21.19Zm2.18-2.15l-4.11-3.94s.3-.33.61-.66c.15-.16.31-.32.42-.45.12-.12.19-.21.19-.21l4.27,3.76s-.08.1-.21.24c-.13.14-.3.32-.48.51-.34.37-.69.75-.69.75Zm2.19-2.47l-4.37-3.65s.07-.09.18-.21c.11-.13.26-.29.39-.47.27-.36.54-.71.54-.71l4.52,3.46s-.3.4-.61.81c-.15.2-.32.39-.44.53-.12.15-.21.24-.21.24Zm1.97-2.51l-2.58-1.87.94-1.38,2.65,1.77-1.01,1.48Zm1.65-2.46l-2.69-1.71s.22-.36.44-.71c.22-.36.44-.71.44-.71l2.75,1.61-.94,1.52Zm1.5-2.55l-2.79-1.54s.2-.36.4-.73c.05-.09.1-.18.15-.27.04-.09.08-.17.12-.24.07-.14.11-.24.11-.24l2.85,1.43s-.05.1-.12.25c-.04.08-.08.16-.12.26-.05.09-.11.19-.16.29-.22.39-.43.78-.43.78Zm1.34-2.64l-2.88-1.36s.05-.09.12-.23c.07-.14.17-.33.24-.52.16-.39.32-.77.32-.77l2.93,1.25s-.17.41-.35.83c-.08.21-.19.41-.26.56-.07.15-.12.25-.12.25Zm1.19-2.71l-2.96-1.18s.04-.09.1-.24c.05-.15.12-.35.19-.54.14-.4.29-.79.29-.79l3,1.07s-.15.42-.31.84c-.08.21-.15.42-.21.58-.05.16-.1.26-.1.26Zm-47.43,30.6l.19-3.19s.42.02.84.04c.42.02.84.05.84.05l-.07,3.19-1.8-.09Zm-1.33-.1c-.45-.04-.9-.09-.9-.09l.34-3.17s.42.04.84.08c.21.02.42.04.58.06.08.01.14.01.19.01.05,0,.07,0,.07,0l-.22,3.19s-.03,0-.08,0c-.05,0-.12,0-.2-.02-.17-.02-.39-.04-.62-.07Zm5.43.19h-1.8s.04-3.19.04-3.19c0,0,.42,0,.84,0,.42,0,.84,0,.84,0l.08,3.19Zm1.94,9.17l-.68-12.43s.48-.02.95-.04c.47-.05.95-.1.95-.1l1.2,12.39s-.6.06-1.21.12c-.61.03-1.22.06-1.22.06Zm5.07-7.33s-.53.08-1.06.16c-.26.04-.53.08-.73.11-.1.02-.18.02-.24.03-.06,0-.09,0-.09,0l-.68-5.66s.03,0,.08,0c.05,0,.13,0,.21-.03.18-.03.41-.07.65-.1.47-.07.94-.14.94-.14l.92,5.63Zm1.64-2.86c-.44.09-.89.18-.89.18l-.59-3.14s.41-.08.83-.17c.21-.04.41-.08.57-.11.15-.03.26-.06.26-.06l.71,3.11s-.11.03-.28.06c-.17.03-.39.08-.61.12Zm2.03-.47l-.79-3.09s.41-.1.82-.2c.21-.05.4-.12.56-.17.15-.05.25-.08.25-.08l.9,3.06s-.11.03-.27.08c-.16.05-.38.13-.6.18-.44.11-.88.22-.88.22Zm2.87-.82l-.97-3.04s.1-.03.25-.07c.15-.04.35-.13.55-.19.4-.14.8-.29.8-.29l1.09,3s-.43.15-.85.31c-.22.07-.42.16-.59.21-.16.05-.27.08-.27.08Zm3.22-4.62l1.27,2.93-1.67.69-1.16-2.97s.39-.16.78-.33c.39-.16.78-.32.78-.32Zm2.34,2.44l-1.34-2.9s.38-.18.77-.36c.39-.17.76-.38.76-.38l1.45,2.85s-.4.22-.81.4c-.41.19-.82.38-.82.38Zm-60.68-102.65c.05.07.11.11.19.14.09.03.2.01.28-.04l1.5-.99c.13-.08.26-.17.38-.25.24-.16.46-.31.64-.42l.48-.29c.08-.05.13-.12.16-.21.02-.09,0-.18-.04-.26l-5.7-9.34c-.1-.16-.31-.21-.47-.11l-.56.34c-.23.14-.51.33-.81.52l-2.12,1.4c-.08.05-.13.13-.15.22-.02.09,0,.18.05.26l6.16,9.04Zm-3.56-10.35c.29-.19.56-.37.79-.51l.27-.16,5.34,8.76-.19.11c-.19.12-.42.27-.66.43-.12.08-.25.17-.38.25l-1.22.8-5.77-8.48,1.83-1.21Zm-2.3,14.86c.04.05.1.09.17.11.02,0,.05.01.07.01.09,0,.19-.03.25-.09,0,0,.04-.03.1-.08l2.56-2.07c.05-.04.09-.07.1-.07.08-.05.13-.14.15-.23.01-.09,0-.19-.07-.26l-6.63-8.7c-.11-.14-.31-.18-.46-.08,0,0-.06.04-.16.12l-2.95,2.38c-.1.08-.16.13-.16.13-.13.13-.14.33-.03.47l7.06,8.35Zm-3.63-10.7l6.21,8.16-2.28,1.84-6.62-7.83,2.68-2.16Zm-9.61,8.24l7.89,7.57s.09.07.14.08c.03.01.07.01.1.01.09,0,.18-.04.24-.11l.38-.41c.15-.16.35-.35.56-.55l1.61-1.57c.13-.13.14-.34,0-.48l-7.49-7.96c-.06-.07-.15-.11-.24-.11-.09,0-.18.03-.24.1l-1.82,1.78c-.25.25-.5.49-.69.69l-.44.48c-.13.14-.12.35.01.48Zm.92-.48c.19-.19.43-.43.68-.68l1.56-1.53,7.03,7.47-1.37,1.34c-.21.21-.41.4-.57.57l-.15.16-7.39-7.1.21-.22Zm-13.83,18.48l9.63,5.17s.05.02.07.03c.15.04.31-.02.39-.16l1.18-2.15.59-.97c.05-.08.06-.17.04-.26-.02-.09-.08-.17-.15-.21l-9.35-5.66c-.16-.1-.37-.04-.47.12l-.69,1.14-1.37,2.49c-.04.08-.05.17-.03.26.03.09.09.16.17.2Zm1.73-2.44l.6-1.01,8.77,5.3-.42.69-1.02,1.86-9.02-4.85,1.1-2Zm-5.33,10.2l10.11,4.14s.02,0,.04.01c.16.05.34-.03.41-.2l.7-1.65c.06-.15.12-.29.18-.44.11-.26.21-.5.3-.69l.24-.51c.04-.08.05-.18.02-.26-.03-.09-.09-.16-.18-.19l-9.89-4.64c-.17-.08-.37,0-.45.16l-.28.58c-.12.24-.24.53-.38.84-.07.16-.13.32-.21.48l-.81,1.91c-.04.08-.04.18,0,.26.04.08.1.15.19.19Zm1.25-2.09c.07-.16.14-.33.21-.49.13-.3.25-.59.36-.81l.13-.28,9.27,4.35-.09.19c-.1.21-.21.46-.32.72-.06.14-.12.28-.18.43l-.57,1.35-9.48-3.88.67-1.59Zm-4.02,10.16l10.48,3.07s0,0,0,0c.18.05.36-.05.42-.23l.89-2.88.19-.53c.03-.08.03-.18-.01-.26-.04-.08-.11-.15-.2-.18l-10.32-3.59c-.18-.06-.37.03-.43.21l-.22.62-1.04,3.34c-.03.09-.02.18.03.26.04.08.12.14.21.16Zm1.45-3.55l.1-.29,9.67,3.37-.88,2.79-9.83-2.88.93-2.99Zm7.75,13.56l.6-2.96.13-.55c.02-.09,0-.18-.04-.26-.05-.08-.12-.13-.21-.16l-10.63-2.51c-.18-.04-.37.07-.41.25l-.16.64-.69,3.43c-.02.09,0,.18.05.26.05.07.11.12.19.14.01,0,.02,0,.03,0l10.74,1.97c.18.03.36-.09.4-.27Zm-10.67-2.32l.62-3.07.07-.3,9.96,2.36-.59,2.87-10.07-1.85Zm-1.44,4.74c-.02.11-.04.27-.06.49l-.34,3.49c0,.09.02.18.08.25.04.05.1.09.17.11.02,0,.04,0,.07.01l10.89.84c.18.01.35-.12.37-.31l.3-3.03c.02-.17.03-.3.05-.39l.02-.15c.01-.09,0-.18-.07-.26-.06-.07-.14-.12-.23-.13l-10.83-1.4c-.18-.02-.35.1-.38.29l-.03.17Zm10.81,1.57c0,.07-.01.14-.02.23l-.27,2.69-10.21-.79.31-3.15c.01-.11.02-.21.03-.29l10.15,1.31Zm.09,10.93c.06-.07.09-.16.09-.26,0,0,0-.05,0-.12v-3.45c0-.18-.15-.34-.34-.34l-16.72-.39c-.09,0-.18.03-.24.1-.07.07-.1.15-.1.24v2.23s0,2.04,0,2.04c0,.14,0,.22,0,.22.01.14.11.26.25.3.03,0,.07.01.1.01l16.72-.47c.09,0,.18-.04.24-.12Zm-16.64-.11v-3.76s16.03.38,16.03.38v2.94s-16.03.45-16.03.45Zm59.78-67.71c.04.1.12.17.22.2.07.02.15.02.22-.01l1.66-.68c.27-.11.54-.21.79-.29.13-.05.25-.09.36-.13l.53-.19c.08-.03.15-.09.19-.18.04-.08.04-.18.01-.26l-3.69-10.3c-.06-.18-.26-.27-.44-.21l-.61.22c-.12.04-.25.09-.39.14-.29.11-.62.22-.96.36l-1.92.79c-.08.03-.15.1-.18.18-.04.08-.04.18,0,.26l4.2,10.1Zm-1.84-10.71c.32-.13.64-.24.93-.35.14-.05.28-.1.4-.14l.29-.1,3.46,9.66-.21.07c-.11.04-.22.08-.35.13-.25.09-.54.19-.82.31l-1.35.56-3.94-9.47,1.6-.66Zm-4.81,13.94c.05.08.12.14.21.16.08.02.17.01.25-.03l1.59-.84c.34-.18.77-.41,1.08-.55l.51-.24c.08-.04.15-.11.18-.2.03-.08.02-.18-.01-.26l-7.25-15.11c-.08-.17-.29-.24-.46-.16l-.62.3c-.39.18-.87.43-1.38.7l-1.96,1.04c-.08.04-.14.12-.17.2-.03.09-.02.18.03.26l8,14.72Zm-5.58-15.62c.47-.25.97-.51,1.35-.68l.32-.15,6.95,14.49-.19.09c-.31.14-.67.33-1.12.57l-1.29.68-7.67-14.12,1.65-.88Zm-28.92,94.82c.05-.08.06-.17.04-.26l-.14-.55c-.09-.32-.18-.78-.26-1.19l-.35-1.77c-.04-.18-.21-.3-.4-.27l-10.73,2.03c-.09.02-.17.07-.22.15-.05.08-.07.17-.05.26l.41,2.04c.12.59.22,1.05.31,1.41l.16.63c.03.12.12.22.24.25.05.01.11.02.17,0l10.62-2.57c.09-.02.16-.08.21-.15Zm-10.66,1.98l-.08-.31c-.1-.37-.2-.88-.3-1.37l-.34-1.7,10.06-1.9.29,1.43c.08.42.18.89.27,1.23l.05.21-9.95,2.41Zm12.78,5.09c.04-.08.04-.18.01-.26l-.19-.53c-.04-.11-.08-.23-.13-.36-.09-.24-.19-.52-.27-.8l-.52-1.72c-.05-.18-.24-.28-.42-.23l-10.46,3.14c-.09.03-.16.09-.2.17-.04.08-.05.18-.03.26l.61,1.99c.1.34.22.67.33.96.05.14.1.27.14.4l.22.61c.04.11.13.19.23.22.07.02.14.02.21,0l10.29-3.66c.08-.03.16-.09.19-.18Zm-10.39,3.08l-.1-.29c-.04-.12-.09-.26-.14-.41-.1-.29-.22-.61-.32-.93l-.51-1.66,9.81-2.94.42,1.4c.09.29.19.58.28.83.05.13.09.25.13.36l.07.21-9.65,3.43Zm13.22,3.47l-.9-1.92-.56-1.35c-.03-.08-.1-.15-.18-.18-.08-.03-.18-.03-.26,0l-10.08,4.21c-.17.07-.26.27-.18.45l.5,1.21,1.19,2.59c.04.08.11.15.19.18,0,0,.02,0,.02,0,.08.02.16.01.24-.02l9.86-4.71c.17-.08.24-.28.16-.46Zm-10,4.4l-.73-1.57-.67-1.58,9.45-3.94.3.74.89,1.94-9.24,4.41Zm13.5,2.09l-.91-1.55c-.07-.12-.14-.24-.21-.35-.15-.26-.3-.5-.4-.71l-.26-.5c-.04-.08-.12-.14-.2-.17-.09-.03-.18-.02-.26.03l-9.59,5.23c-.17.09-.23.29-.14.46l.3.57c.13.26.3.55.49.87.07.13.15.26.22.39l1.06,1.79c.04.08.11.13.2.16,0,0,0,0,0,0,.09.02.18,0,.26-.04l9.32-5.71c.16-.1.21-.31.12-.47Zm-9.5,5.41l-.88-1.49c-.08-.13-.15-.26-.23-.39-.18-.31-.35-.6-.47-.84l-.14-.27,8.99-4.9.1.18c.11.22.26.47.42.74.07.11.14.23.21.35l.74,1.26-8.74,5.35Zm13.64.69l-1.79-2.46c-.09-.13-.17-.24-.22-.32l-.09-.13c-.05-.08-.13-.13-.22-.15-.09-.02-.18,0-.26.05l-9,6.2c-.15.11-.19.32-.09.47l.09.14c.07.1.16.24.28.4l2.06,2.83c.05.06.11.11.18.13.01,0,.03,0,.04,0,.09.01.18-.01.26-.07l8.68-6.64c.15-.11.18-.32.07-.47Zm-8.89,6.36l-1.85-2.55c-.07-.09-.12-.17-.17-.24l8.44-5.81c.04.05.08.11.13.19l1.59,2.18-8.14,6.23Zm13.64-.75l-.1-.1s-.05-.06-.09-.09c-.05-.06-.12-.12-.19-.2l-2.01-2.27c-.12-.14-.34-.16-.48-.04l-8.31,7.1c-.07.06-.11.14-.12.24,0,.09.02.18.09.25l2.32,2.62c.09.11.18.19.25.27.03.03.06.06.09.09l.12.13s.1.07.15.09c.11.03.24,0,.33-.08l7.95-7.51c.07-.06.1-.15.1-.24,0-.09-.03-.18-.1-.25Zm-8.18,7.27c-.06-.06-.13-.13-.2-.22l-2.09-2.36,7.8-6.65,1.79,2.02c.06.06.11.12.16.17l-7.45,7.04Zm3.72-88.12l-2.76-1.59s.07-.14.19-.35c.12-.2.29-.47.45-.74.33-.54.66-1.08.66-1.08l2.7,1.69s-.32.51-.63,1.03c-.16.26-.31.51-.43.71-.11.2-.18.33-.18.33Zm-1.86,3.52l-2.85-1.42s.28-.57.55-1.14c.3-.55.61-1.11.61-1.11l2.8,1.52s-.29.53-.58,1.06c-.26.54-.53,1.08-.53,1.08Zm-3.57.07l2.89,1.35s-.07.14-.16.34c-.1.2-.21.48-.33.76-.24.55-.47,1.11-.47,1.11l-2.94-1.23s.25-.58.49-1.16c.12-.29.24-.59.34-.8.1-.21.17-.36.17-.36Zm-1.64,3.84l2.97,1.16-.83,2.26-3.01-1.05.87-2.38Zm-1.39,3.94l3.03.98-.71,2.3-3.07-.87.74-2.41Zm-1.46,5.24c.16-.61.31-1.23.31-1.23l3.09.79s-.15.59-.3,1.17c-.07.29-.15.58-.19.81-.04.22-.07.37-.07.37l-3.11-.68s.03-.16.08-.39c.04-.23.12-.54.2-.85Zm-.68,3.24c.05-.23.08-.39.08-.39l3.13.6s-.03.15-.07.37c-.04.22-.11.52-.16.81-.09.6-.18,1.19-.18,1.19l-3.15-.49s.09-.62.19-1.25c.05-.31.12-.62.16-.85Zm-.65,4.13c.03-.23.06-.39.06-.39l3.16.41s-.02.15-.05.37c-.02.22-.05.53-.08.82-.06.6-.12,1.2-.12,1.2l-3.17-.29s.06-.63.12-1.26c.03-.32.06-.63.09-.87Zm-.47,6.3l.12-2.53,3.18.21-.12,2.41-3.18-.09Zm5.58,19.47c.06.22.11.36.11.36l-3.06.89s-.05-.15-.11-.38c-.07-.23-.15-.53-.23-.84-.15-.61-.31-1.23-.31-1.23l3.09-.77s.15.58.29,1.17c.07.29.15.58.22.8Zm.93,3.01c.2.57.4,1.13.4,1.13l-3,1.07s-.21-.6-.43-1.19c-.11-.3-.2-.6-.27-.83-.07-.23-.12-.38-.12-.38l3.04-.96s.04.15.11.36c.06.22.15.51.26.79Zm.93,2.62l.92,2.23-2.93,1.26-.96-2.34,2.97-1.15Zm-.81,6.14c-.27-.57-.54-1.15-.54-1.15l2.9-1.33s.25.55.51,1.09c.13.27.26.55.35.75.05.1.09.19.12.25.03.06.05.09.05.09l-2.84,1.43s-.02-.04-.05-.1c-.03-.06-.08-.15-.13-.26-.1-.21-.24-.5-.37-.79Zm43.56-94.81l.82,3.08s-.15.04-.36.09c-.22.05-.51.14-.79.23-.58.18-1.15.35-1.15.35l-.94-3.05s.6-.18,1.21-.37c.3-.09.6-.19.83-.24.23-.06.38-.1.38-.1Zm-5.25,5.04l-1.12-2.99,2.38-.85,1.01,3.03-2.26.81Zm-3.68,1.52l-1.3-2.91s.14-.07.36-.17c.22-.09.51-.21.8-.34.58-.24,1.17-.48,1.17-.48l1.19,2.96s-.56.23-1.11.46c-.28.12-.56.23-.76.32-.21.1-.34.16-.34.16Zm-3.57,1.75l-1.48-2.83s.56-.3,1.12-.59c.28-.14.57-.27.78-.38.21-.1.36-.17.36-.17l1.37,2.88s-.13.06-.34.16c-.2.1-.48.22-.75.36-.53.28-1.06.56-1.06.56Zm-3.46,1.95l-1.65-2.73s.54-.32,1.09-.64c.27-.16.54-.32.75-.44.1-.06.19-.11.25-.14.06-.03.1-.05.1-.05l1.55,2.79s-.03.02-.09.05c-.06.03-.14.07-.24.13-.2.11-.45.27-.71.42-.52.31-1.03.61-1.03.61Zm-3.34,2.15l-1.81-2.63,2.11-1.39,1.71,2.69-2.01,1.33Zm-3.19,2.38l-1.97-2.51s.12-.1.31-.25.43-.35.69-.53c.51-.37,1.02-.75,1.02-.75l1.88,2.58s-.49.35-.97.71c-.25.17-.48.36-.65.5-.18.14-.29.24-.29.24Zm-3.04,2.56l-2.12-2.38s.47-.42.94-.84c.24-.21.47-.42.66-.57.18-.15.31-.25.31-.25l2.03,2.46s-.12.1-.29.24c-.18.14-.4.34-.63.54-.45.4-.9.8-.9.8Zm-3.34-1.28l2.18,2.33-1.72,1.68-2.26-2.25,1.81-1.77Zm6.78,6.84l-1.93,1.88c-.11.11-.21.2-.27.27l-.09.1c-.12.14-.12.35.01.48l3.81,3.68s.09.07.14.08c.03,0,.07.01.1.01.09,0,.18-.04.24-.11l.09-.1s.09-.1.21-.21l1.65-1.61.09-.08c.07-.06.11-.15.11-.24,0-.09-.03-.18-.09-.25l-3.6-3.89c-.13-.14-.34-.15-.48-.02Zm1.85,5.6s-.06.06-.09.09l-3.31-3.21s.07-.06.1-.1l1.67-1.64,3.13,3.39-1.5,1.47Zm-5.9-1.27c-.09,0-.18.05-.23.12l-1.02,1.22c-.07.08-.13.16-.2.23-.19.23-.38.44-.51.63l-.3.4c-.11.15-.09.36.06.48l4.18,3.26s.07.05.12.06c.04.01.09.02.14,0,.09-.01.17-.06.23-.13l.28-.37c.11-.15.26-.33.43-.53.06-.07.13-.15.19-.22l.93-1.11c.12-.14.1-.36-.03-.48l-3.99-3.48c-.07-.06-.16-.09-.25-.08Zm3.54,3.86l-.71.85c-.06.07-.12.15-.18.22-.17.21-.34.4-.46.56l-.06.09-3.64-2.84.1-.13c.12-.17.29-.37.48-.59.07-.08.13-.16.2-.24l.8-.95,3.47,3.03Zm10.39-15.56l-.43.26c-.08.05-.18.11-.28.17-.21.12-.44.26-.66.41l-1.33.88c-.08.05-.13.13-.15.22-.02.09,0,.18.05.26l2.95,4.4c.05.07.12.12.19.14.09.03.2.01.28-.04l1.22-.8c.18-.13.38-.24.56-.34.1-.06.19-.11.27-.16l.39-.23c.08-.05.13-.12.16-.21.02-.09,0-.18-.04-.26l-2.7-4.56c-.1-.16-.31-.22-.47-.12Zm2.31,4.79c-.08.05-.16.1-.26.15-.19.11-.4.23-.6.37l-.93.61-2.57-3.83,1.05-.7c.2-.14.43-.27.62-.38.11-.06.21-.12.29-.17l.13-.08,2.35,3.97-.1.06Zm-7.43-1.37l-.4.29c-.16.12-.35.27-.54.42-.11.09-.22.18-.33.27l-1.24,1c-.07.06-.12.14-.12.23,0,.09.02.18.08.25l3.39,4.07c.05.05.1.09.17.11.1.03.22.01.31-.06l1.13-.91c.11-.09.21-.17.31-.26.17-.13.32-.26.45-.36l.37-.27c.07-.05.12-.13.14-.23.01-.09,0-.18-.06-.26l-3.17-4.25c-.11-.15-.32-.18-.47-.07Zm2.81,4.51c-.15.11-.32.24-.49.38-.1.08-.2.17-.31.25l-.87.7-2.96-3.54.97-.78c.12-.09.23-.18.34-.28.18-.15.36-.29.51-.4l.13-.09,2.76,3.7-.08.06Zm-15.4,8.61c-.09.02-.17.07-.22.14l-.9,1.32-.85,1.36c-.1.16-.05.37.11.47l4.5,2.79s.06.03.09.04c.06.02.12.02.17,0,.09-.02.16-.08.21-.15l.6-.99.97-1.41c.11-.15.07-.37-.09-.47l-4.34-3.03c-.07-.05-.17-.07-.26-.06Zm3.93,3.46l-.62.91-.6.95-3.92-2.43.35-.57,1.01-1.5,3.78,2.64Zm-12.34,14.34c-.08.05-.13.12-.16.21l-.39,1.55c-.04.14-.07.29-.11.42-.06.24-.12.46-.16.66l-.1.49c-.04.18.07.35.24.4,0,0,.01,0,.02,0l5.17,1.13c.09.02.18,0,.26-.05.08-.05.13-.13.15-.22l.09-.44c.04-.16.09-.35.14-.55.03-.13.07-.27.1-.41l.36-1.41c.04-.18-.06-.36-.24-.41,0,0,0,0,0,0l-5.1-1.41c-.09-.02-.18-.01-.26.03Zm4.86,1.95l-.28,1.08c-.03.13-.07.27-.1.4-.06.21-.11.41-.15.58l-.02.1-4.5-.98.03-.15c.04-.18.1-.4.15-.63.04-.14.07-.29.11-.43l.31-1.21,4.44,1.23Zm-6.68,6.61l-.13,1.29c-.02.17.09.32.25.36.02,0,.04,0,.06.01l5.26.53c.09,0,.18-.02.25-.08.07-.06.11-.14.12-.23l.11-1.15.26-1.7c.03-.19-.1-.36-.28-.39l-5.22-.82c-.09-.01-.18,0-.25.06-.07.05-.12.13-.14.22l-.28,1.89Zm5.46-.73l-.21,1.38-.08.83-4.58-.47.09-.93.23-1.53,4.55.72Zm-5.88,6.41c0,.12,0,.26,0,.39v1.8c0,.09.04.18.1.24.04.04.09.07.15.09.03,0,.06.01.1.01l5.29-.07c.19,0,.34-.16.34-.34v-1.44c0-.07,0-.14,0-.2,0-.11,0-.21,0-.31l.05-.91c0-.09-.03-.18-.09-.25-.06-.07-.15-.11-.24-.11l-5.29-.22c-.19,0-.35.14-.35.32l-.05,1.01Zm5.32-.44l-.03.57c0,.11,0,.23,0,.35,0,.06,0,.13,0,.2v1.11s-4.6.06-4.6.06v-1.24c0-.07,0-.15,0-.22,0-.12,0-.24,0-.35l.03-.67,4.6.19Zm-5.14,6.54l.26,2.56.02.14c.02.14.12.24.25.28.04.01.09.02.14,0l5.25-.68c.09-.01.17-.06.23-.13.05-.07.08-.17.06-.26l-.25-2.42c-.03-.25-.03-.41-.03-.41,0-.09-.04-.18-.11-.25-.07-.06-.16-.09-.25-.09l-5.28.38c-.18.01-.32.17-.32.35,0,0,0,.22.04.52Zm5.26-.55s0,.08.01.12l.21,2.1-4.57.59-.23-2.33s-.01-.09-.01-.14l4.6-.33Zm-4.13,8.14c.07.39.17.78.24,1.06l.13.51c.03.12.12.21.24.25.06.01.12.02.18,0l5.13-1.27c.09-.02.17-.08.21-.16.05-.08.06-.17.04-.26l-.12-.48c-.07-.26-.15-.58-.21-.92l-.28-1.42c-.04-.18-.21-.3-.4-.27l-5.2.98c-.09.02-.17.07-.22.14-.05.08-.07.17-.05.26l.31,1.56Zm4.95-2.21l.22,1.08c.06.36.15.71.22.96l.04.14-4.47,1.11-.05-.19c-.07-.29-.17-.64-.23-1.02l-.24-1.22,4.53-.86Zm-3.38,8.02c.04.12.08.24.13.36.02.07.05.13.07.2l.53,1.5c.03.09.1.16.18.2.02,0,.03.01.05.02.07.02.14.02.21,0l4.96-1.85c.18-.07.27-.26.2-.44l-.49-1.36c-.02-.07-.05-.13-.07-.19-.04-.1-.07-.2-.1-.29l-.26-.88c-.03-.09-.09-.16-.17-.2-.08-.04-.17-.05-.26-.03l-5.05,1.57c-.18.05-.28.24-.23.43l.29.97Zm4.86-2.21l.16.55c.03.11.07.22.11.33.02.06.04.12.07.19l.37,1.05-4.32,1.61-.42-1.17c-.02-.07-.05-.14-.07-.21-.04-.11-.08-.23-.12-.33l-.19-.64,4.4-1.37Zm-.27,8.96c.06.14.16.35.28.56l.61,1.16c.08.14.15.29.22.43.13.25.26.5.4.74l1.14,1.94c.05.07.12.13.2.15,0,0,0,0,0,0,.09.02.18,0,.26-.04l2-1.24c.16-.1.21-.3.12-.46l-1.1-1.86c-.12-.21-.24-.43-.36-.67-.07-.14-.15-.29-.22-.42l-.59-1.11c-.1-.18-.19-.37-.24-.49l-.67-1.43c-.08-.17-.28-.24-.45-.17l-2.14.98c-.08.04-.15.11-.18.19-.03.09-.03.18.01.26l.7,1.49Zm1.59-2.16l.52,1.12c.06.13.15.33.26.54l.59,1.11c.07.14.14.28.22.41.12.24.25.48.38.7l.93,1.57-1.42.88-.97-1.64c-.13-.22-.25-.45-.38-.7-.08-.15-.15-.29-.23-.43l-.61-1.16c-.08-.15-.16-.31-.26-.52l-.55-1.18,1.52-.69Zm10.37-40.07c-1.28,2.88-2.15,5.73-2.71,8.21-.12.62-.24,1.21-.36,1.78-.1.57-.16,1.11-.24,1.61-.04.25-.09.5-.11.73-.02.24-.04.47-.06.69-.04.44-.09.84-.12,1.21-.04.73-.06,1.31-.08,1.7-.01.2-.02.35-.03.45,0,.1,0,.15,0,.15l-1.14-.02s0-.05,0-.16c0-.1.02-.26.03-.46.02-.4.05-1,.09-1.75.04-.38.08-.79.13-1.24.02-.23.04-.46.06-.71.02-.24.07-.5.11-.75.08-.52.15-1.07.25-1.66.12-.58.25-1.19.37-1.83.57-2.54,1.47-5.47,2.78-8.43l.12-.28.14-.27c.09-.18.18-.37.27-.55.18-.37.36-.74.53-1.12.2-.36.4-.73.61-1.1.21-.36.38-.75.62-1.1.22-.36.45-.72.67-1.08.12-.18.21-.37.34-.54l.37-.53c.24-.35.48-.71.72-1.06l.78-1.03c.5-.7,1.08-1.34,1.62-2,.26-.34.57-.64.86-.95.29-.31.58-.63.86-.94.3-.3.61-.59.91-.88.3-.29.59-.6.91-.86.63-.54,1.22-1.12,1.87-1.6,2.51-2.04,5.08-3.67,7.38-4.86.29-.15.56-.31.84-.44.28-.13.55-.26.82-.38.27-.13.53-.25.78-.37.25-.12.51-.21.75-.32.49-.2.94-.39,1.36-.57.43-.15.82-.29,1.18-.41.18-.07.35-.13.5-.18.16-.06.31-.11.45-.15.28-.08.52-.15.71-.21.38-.12.59-.18.59-.18l.32,1.09s-.2.06-.58.18c-.19.06-.42.13-.69.21-.14.04-.28.09-.44.15-.15.06-.32.12-.49.18-.35.12-.73.26-1.15.41-.41.17-.85.35-1.32.55-.24.1-.49.19-.73.31-.25.12-.5.24-.76.36-.26.12-.53.25-.8.37-.28.12-.54.29-.82.43-2.24,1.16-4.74,2.75-7.18,4.74-.63.47-1.2,1.03-1.82,1.56-.31.26-.59.55-.88.84-.29.28-.59.57-.88.86-.28.3-.56.61-.84.91-.28.31-.58.6-.84.93-.53.65-1.09,1.26-1.58,1.95l-.76,1c-.23.35-.47.69-.7,1.04l-.35.51c-.12.17-.22.35-.33.53-.22.35-.43.7-.65,1.06-.23.34-.4.72-.6,1.07-.2.36-.39.71-.59,1.07-.18.37-.35.73-.52,1.09-.09.18-.18.36-.26.54l-.13.26-.11.27Zm27.33-27.15l.28,1.11s-.11.03-.31.08c-.1.02-.22.06-.37.09-.14.03-.31.07-.49.14-.73.24-1.8.51-3.03.99-2.48.9-5.71,2.35-8.68,4.25-.37.24-.74.49-1.1.73-.18.12-.37.24-.55.36-.18.13-.35.26-.53.39-.35.25-.7.51-1.04.76-.34.25-.66.53-.98.79-.32.26-.65.51-.94.77-.3.26-.59.52-.87.78-.14.12-.28.25-.42.37-.07.06-.14.12-.21.18-.06.06-.13.13-.19.19-.25.25-.5.49-.73.72-.23.23-.47.45-.68.66-.2.22-.39.43-.58.63-.36.4-.69.73-.94,1.02-.49.59-.77.93-.77.93l-.88-.73s.29-.35.79-.95c.25-.3.6-.64.96-1.04.19-.2.38-.42.59-.64.21-.22.45-.44.69-.68.24-.24.49-.48.75-.74.06-.07.13-.13.2-.19.07-.06.14-.12.21-.19.14-.12.29-.25.43-.38.29-.26.59-.52.89-.79.31-.27.64-.52.97-.79.33-.26.65-.55,1.01-.8.35-.26.71-.52,1.07-.78.18-.13.36-.27.54-.4.18-.13.38-.24.56-.37.38-.25.75-.5,1.13-.75,3.05-1.95,6.36-3.44,8.91-4.36,1.26-.49,2.35-.77,3.11-1.02.19-.06.36-.11.51-.14.15-.04.28-.07.38-.09.2-.05.31-.08.31-.08Zm-34.9,83.83l-.87.74s-.08-.08-.21-.26c-.14-.17-.34-.42-.6-.75-.26-.33-.59-.74-.97-1.21-.38-.48-.78-1.06-1.25-1.7-1.84-2.56-4.27-6.38-6.46-11.34-1.06-2.49-2.08-5.24-2.93-8.22-.81-2.99-1.46-6.2-1.85-9.56-.81-6.72-.39-14.02,1.23-21.06,1.64-7.04,4.54-13.75,8.19-19.43,1.84-2.84,3.84-5.43,5.89-7.75.53-.57,1.04-1.13,1.55-1.68.25-.28.53-.53.79-.79.26-.26.52-.52.79-.77.26-.26.52-.51.77-.76.27-.24.53-.47.8-.71.53-.46,1.04-.93,1.55-1.37,4.15-3.47,8.02-5.82,10.8-7.29.35-.18.68-.36.99-.52.16-.08.31-.16.45-.24.15-.07.29-.14.43-.2.55-.26,1.02-.48,1.41-.66.38-.18.67-.32.87-.41.2-.08.3-.12.3-.12l.45,1.04s-.1.04-.3.12c-.2.09-.48.23-.86.4-.37.18-.84.39-1.38.65-.14.06-.28.13-.42.2-.14.08-.29.15-.44.23-.3.16-.63.33-.97.51-2.73,1.45-6.53,3.76-10.6,7.16-.51.43-1,.89-1.52,1.34-.26.23-.52.46-.78.69-.25.25-.5.49-.76.74-.25.25-.51.5-.77.76-.26.26-.53.5-.77.78-.5.54-1.01,1.09-1.53,1.65-2.01,2.28-3.98,4.82-5.78,7.61-3.58,5.58-6.43,12.17-8.04,19.08-1.59,6.9-2,14.07-1.2,20.67.38,3.3,1.02,6.45,1.82,9.39.83,2.93,1.83,5.63,2.87,8.07,2.15,4.86,4.54,8.62,6.35,11.13.46.62.85,1.19,1.22,1.67.38.47.7.87.96,1.19.26.32.46.57.59.74.13.17.21.25.21.25Zm16.81-13.34c.41.46.71.84.96,1.06.23.24.35.36.35.36l-.81.8s-.13-.13-.37-.37c-.25-.23-.56-.62-.98-1.09-.85-.93-1.97-2.36-3.2-4.15-1.22-1.8-2.49-4.01-3.57-6.51-1.08-2.49-1.96-5.27-2.53-8.1-.57-2.83-.83-5.71-.8-8.41.03-2.7.35-5.22.78-7.35.05-.27.1-.53.15-.78.03-.13.05-.26.07-.38.03-.12.06-.24.1-.37.13-.48.24-.94.35-1.37.04-.22.11-.42.18-.62.06-.2.12-.39.18-.57.11-.37.21-.71.3-1.01.44-1.19.68-1.88.68-1.88l1.06.42s-.23.67-.66,1.82c-.09.3-.19.63-.3.98-.06.18-.12.36-.18.56-.06.19-.13.39-.17.6-.1.42-.21.87-.34,1.34-.03.12-.06.24-.1.36-.03.12-.05.24-.07.37-.05.25-.1.5-.15.76-.41,2.08-.73,4.52-.75,7.14-.03,2.62.22,5.42.77,8.17.55,2.75,1.41,5.45,2.46,7.87,1.05,2.43,2.28,4.58,3.47,6.33,1.19,1.74,2.28,3.13,3.11,4.04Zm-17.99-18.01c-.02-.17-.04-.28-.04-.28l3.14-.51s.02.1.04.26c.02.16.05.36.1.57.08.41.17.82.17.82l-3.12.63s-.09-.44-.18-.88c-.05-.22-.08-.44-.11-.61Zm-.31-2.05c-.04-.45-.09-.89-.09-.89l3.17-.33s.04.42.08.83c.06.41.13.83.13.83l-3.15.45s-.07-.44-.13-.89Zm1.24,6.37l-.44-1.74,5.44-1.23.39,1.54-5.39,1.43Zm.64,2.19c-.15-.49-.29-.97-.29-.97l5.46-1.61s.13.43.26.86c.07.21.12.43.18.59.06.16.1.26.1.26l-5.38,1.84s-.04-.12-.11-.3c-.07-.18-.13-.43-.21-.67Zm.85,2.47c-.06-.18-.1-.3-.1-.3l5.33-1.98s.04.11.09.26c.03.08.06.17.1.27.04.1.08.2.13.3.17.41.34.83.34.83l-5.25,2.2s-.19-.47-.39-.94c-.05-.12-.1-.23-.14-.34-.04-.11-.08-.22-.11-.31Zm1.86,4.3l-.76-1.63,2.91-1.3s.18.38.36.76c.18.38.35.76.35.76l-2.86,1.41Zm.96,1.84c-.21-.4-.42-.79-.42-.79l2.82-1.48s.19.37.39.74c.19.38.41.74.41.74l-2.76,1.58s-.24-.38-.44-.79Zm3.89.37c.08.13.18.32.3.49.23.35.46.7.46.7l-2.66,1.75-.5-.75c-.13-.18-.23-.38-.32-.53-.08-.15-.14-.24-.14-.24l2.73-1.65s.05.09.13.23Zm-.2,5.38l-1.06-1.45,2.62-1.82.99,1.36-2.55,1.91Zm4.26.26l-2.43,2.07s-.08-.08-.18-.22c-.1-.13-.24-.31-.38-.48-.28-.35-.56-.7-.56-.7l2.51-1.97s.26.33.52.65c.13.16.26.33.36.45.1.13.17.2.17.2Zm-6.29-55.85l2.66,1.76s-.06.08-.15.22c-.09.13-.19.31-.3.49-.22.36-.44.72-.44.72l-2.72-1.66s.24-.39.47-.77c.12-.19.23-.39.32-.53.1-.14.16-.23.16-.23Zm1.27-1.84l2.57,1.88s-.02.02-.04.06c-.03.04-.07.09-.11.16-.09.13-.21.3-.32.48-.24.35-.48.7-.48.7l-2.64-1.78s.26-.37.51-.74c.13-.19.25-.38.35-.51.04-.07.09-.13.12-.17.03-.04.05-.06.05-.06Zm-2.49,3.8l2.74,1.63s-.23.35-.42.73c-.2.37-.4.74-.4.74l-2.8-1.52s.22-.4.43-.79c.2-.4.45-.78.45-.78Zm-9.8-1.32l11.09,5.61-.83,1.72-11.31-5.14s.01-.04.04-.1c.03-.06.07-.15.12-.25.1-.21.23-.48.37-.75.26-.55.53-1.1.53-1.1Zm9.13,10.09l-5.32-2.01s.04-.13.11-.32c.07-.19.15-.45.27-.69.21-.49.42-.99.42-.99l5.23,2.23s-.19.44-.38.88c-.1.22-.17.45-.24.62-.06.17-.1.28-.1.28Zm-3.49.25c.06-.16.1-.27.1-.27l3.01,1.05s-.04.1-.09.25c-.06.15-.12.35-.18.55-.12.41-.25.82-.25.82l-3.04-.94s.13-.44.27-.87c.07-.22.13-.44.19-.6Zm-1.26,4.37l.45-1.77,3.07.87-.42,1.65-3.09-.76Zm-.63,2.94l.36-1.78,3.11.68s-.08.42-.17.83c-.09.42-.17.83-.17.83l-3.13-.56Zm-.32,2.07c.07-.45.14-.9.14-.9l3.15.49s-.06.42-.13.84c-.03.21-.07.42-.08.58-.01.16-.02.26-.02.26l-3.16-.37s0-.11.02-.28c.01-.17.06-.39.09-.62Zm-.32,2.98c.04-.45.09-.9.09-.9l3.17.29s-.04.42-.09.84c-.02.42-.04.84-.04.84l-3.18-.17s.02-.45.04-.9Zm118.81-1.94l.18,3.45c0,.07,0,.11,0,.12,0,.09.03.19.1.25.04.04.09.07.15.09.03.01.07.01.1.01l10.92-.28c.18,0,.33-.15.33-.33,0,0,0-.08,0-.21l-.21-3.98c0-.09-.05-.18-.12-.24-.07-.06-.16-.09-.25-.08l-10.89.83c-.18.01-.32.17-.31.36Zm10.91-.48l.09,1.73.08,1.73-10.23.26-.15-2.93,10.21-.78Zm-11.81-7.08c-.05.08-.07.17-.05.26l.11.54.45,3.01c.02.14.12.24.24.28.04.01.09.02.14,0l10.83-1.42c.09-.01.17-.06.23-.13.05-.07.08-.17.06-.26l-.52-3.49-.12-.64c-.04-.18-.21-.31-.4-.27l-10.74,1.97c-.09.01-.17.07-.22.14Zm10.75-1.38l.06.29.47,3.13-10.15,1.33-.41-2.69-.04-.21,10.07-1.85Zm-12.35-5c.1.32.22.77.32,1.17l.44,1.75c.03.12.12.21.24.25.05.01.11.02.17,0l10.62-2.54c.09-.02.17-.08.21-.16.05-.08.06-.17.04-.26l-.51-2.02c-.13-.5-.26-1.02-.38-1.39l-.19-.62c-.05-.18-.24-.28-.42-.23l-10.48,3.08c-.09.03-.16.08-.2.16-.04.08-.05.18-.03.26l.17.55Zm10.41-3.3l.09.3c.12.36.25.87.37,1.36l.42,1.68-9.96,2.39-.35-1.42c-.1-.41-.22-.88-.33-1.21l-.06-.21,9.82-2.89Zm-18.33-14.68l1.54,2.62c.05.09.1.17.13.24.02.04.04.08.05.11l.07.14c.04.08.12.14.2.17h0c.09.02.18.01.26-.03l9.56-5.29c.16-.09.22-.3.14-.46l-.09-.16s-.04-.07-.06-.11c-.05-.09-.1-.2-.17-.31l-1.78-3.02c-.05-.08-.12-.13-.21-.16-.09-.02-.18,0-.26.04l-9.28,5.76c-.16.1-.21.31-.11.47Zm9.46-5.46l1.6,2.72c.06.09.1.18.14.26l-8.96,4.96c-.03-.06-.07-.13-.11-.2l-1.37-2.33,8.71-5.4Zm-13.72-.84c-.01.09.01.18.07.26l.1.12c.06.07.14.18.23.31l1.78,2.46c.05.06.11.11.18.13.09.03.2.01.29-.05l8.97-6.25c.07-.05.13-.13.14-.22.01-.09,0-.18-.06-.26l-2.06-2.83c-.12-.17-.22-.3-.29-.39l-.11-.14c-.12-.15-.33-.17-.48-.06l-8.64,6.69c-.07.06-.12.14-.13.23Zm8.92-6.18c.05.07.11.15.18.24l1.85,2.55-8.4,5.86-1.59-2.18c-.05-.07-.09-.13-.14-.19l8.1-6.28Zm-13.75.6c0,.09.03.18.1.24l.4.41c.15.15.34.36.53.58.09.11.19.21.28.32l1.19,1.35c.05.05.1.08.16.1.11.03.23,0,.32-.07l8.27-7.15c.07-.06.11-.15.12-.24,0-.09-.02-.18-.09-.25l-1.38-1.56c-.11-.12-.21-.23-.31-.35-.24-.27-.46-.52-.66-.71l-.45-.47c-.13-.13-.35-.14-.48,0l-7.9,7.56c-.07.06-.1.15-.11.24Zm8.23-7.07l.22.23c.18.18.4.43.63.69.1.12.21.24.31.35l1.15,1.3-7.76,6.7-.97-1.1c-.09-.1-.19-.21-.28-.31-.2-.23-.39-.45-.56-.61l-.15-.16,7.41-7.09Zm-13.61,2.02c0,.09.05.17.12.23l.43.36c.08.07.16.14.25.21.21.18.45.38.67.59l1.32,1.23s.09.06.14.08c.12.03.25,0,.34-.09l7.49-7.97c.06-.07.1-.16.09-.25,0-.09-.04-.18-.11-.24l-1.52-1.41c-.28-.26-.56-.51-.82-.72-.1-.08-.19-.16-.27-.23l-.5-.42c-.14-.12-.36-.1-.48.04l-7.07,8.34c-.06.07-.09.16-.08.25Zm7.45-7.89l.23.2c.08.07.18.15.28.24.25.21.52.44.79.7l1.27,1.18-7.02,7.47-1.07-.99c-.24-.23-.48-.44-.7-.62-.09-.07-.17-.14-.25-.21l-.17-.14,6.63-7.82Zm-13.18,3.64l1.47,1.01,1.43,1.09s.07.04.11.06c.13.04.28,0,.36-.12l6.61-8.71c.11-.15.09-.36-.06-.48,0,0-.83-.64-1.67-1.26l-1.71-1.18c-.08-.05-.17-.07-.26-.06-.09.02-.17.07-.22.14l-6.16,9.04c-.11.15-.07.37.09.47Zm6.44-8.85l1.42.98c.53.4,1.07.81,1.38,1.04l-6.2,8.17-1.18-.89-1.2-.83,5.78-8.47Zm-12.73,5l1.58.87c.32.17.64.36.89.52l.63.39s.06.03.09.04c.06.02.12.02.17,0,.09-.02.16-.08.21-.15l8.68-14.33c.1-.16.05-.37-.11-.47l-.76-.47c-.33-.2-.74-.45-1.16-.68l-1.95-1.08c-.08-.04-.17-.05-.26-.03-.09.02-.16.09-.2.17l-7.94,14.75c-.09.17-.03.37.14.46Zm8.24-14.59l1.65.91c.41.22.81.46,1.13.66l.48.29-8.32,13.75-.34-.21c-.26-.16-.59-.36-.92-.54l-1.28-.71,7.61-14.15Zm27.7,89.6c-.02.09,0,.18.05.26.05.07.11.12.19.14,0,0,.02,0,.03,0l10.74,1.97c.18.03.36-.08.39-.27,0,0,.06-.26.12-.66l.52-3.47c.01-.09,0-.18-.06-.26-.06-.07-.14-.12-.23-.13l-10.83-1.42c-.18-.02-.35.1-.38.29l-.45,3c-.06.32-.11.54-.11.54Zm11.33-1.77l-.47,3.11c-.02.11-.04.21-.06.3l-10.07-1.85c.01-.07.03-.14.04-.23l.4-2.68,10.15,1.34Zm6.97-4.19s.03-.29.05-.71l.18-3.76c0-.09-.03-.18-.09-.25-.06-.07-.15-.11-.24-.11l-16.72-.43c-.18,0-.34.14-.35.33l-.15,3.04c-.01.32-.04.53-.04.53-.01.09.02.18.07.26.05.05.11.09.17.11.02,0,.04,0,.07.01l16.67,1.28c.18.01.34-.12.37-.31Zm-16.64-1.63c0-.07,0-.15.01-.23l.13-2.7,16.03.41-.16,3.41c0,.13-.01.25-.02.34l-15.99-1.23Zm-51.16-73.01l1.72.53c.84.24,1.67.56,1.67.56,0,0,.02,0,.03,0,.08.02.16.01.24-.02.08-.04.15-.11.18-.2l3.61-10.33c.06-.18-.03-.37-.2-.44-.04-.01-.99-.37-1.98-.66l-1.97-.61c-.09-.03-.18-.02-.26.02-.08.04-.14.12-.17.21l-3.1,10.5c-.05.18.05.37.23.42Zm3.43-10.4l1.65.51c.63.19,1.26.41,1.62.54l-3.39,9.69c-.33-.12-.85-.3-1.39-.46l-1.39-.43,2.9-9.84Zm-10.6,8.67s.02,0,.03,0l1.76.35c.15.03.31.06.46.09.27.06.53.11.73.16l.54.14c.09.02.18,0,.26-.04.08-.05.13-.12.15-.21l2.54-10.65c.04-.18-.07-.37-.25-.41l-.63-.16c-.26-.07-.57-.13-.9-.2-.16-.03-.33-.07-.5-.1l-2.03-.41c-.09-.02-.18,0-.26.05-.08.05-.13.13-.15.22l-2,10.76c-.03.18.07.35.24.39Zm4.05-10.35c.17.04.34.07.51.1.33.07.63.13.87.19l.3.08-2.38,9.98-.21-.05c-.22-.06-.49-.11-.77-.16-.15-.03-.3-.06-.45-.09l-1.43-.29,1.88-10.09,1.69.34Zm-11.63,9.01c-.01.17.09.31.25.36.02,0,.04,0,.06.01l2.96.29.6.08c.09.01.18-.01.26-.06.07-.06.12-.14.13-.23l1.43-10.85c.02-.19-.1-.36-.29-.38l-.66-.09-3.48-.35c-.09,0-.18.02-.25.08-.07.06-.11.14-.12.23l-.88,10.91Zm4.65-10.2l.31.04-1.34,10.18-2.91-.3.82-10.23,3.12.31Zm-12.05,10.02c0,.15.11.28.25.32.03.01.06.01.09.01h3.04c.32,0,.53,0,.53,0,.09,0,.18-.03.25-.09.07-.06.11-.15.11-.24l.29-10.95c0-.18-.14-.34-.32-.35,0,0-.27-.02-.67-.01h-3.51c-.09,0-.18.04-.24.11-.07.07-.1.15-.1.25l.27,10.94Zm3.58-10.62c.11,0,.21,0,.29,0l-.27,10.26c-.07,0-.15,0-.23,0h-2.7s-.25-10.26-.25-10.26h3.16Zm-10.95,11.23c.01.09.06.17.13.23.03.03.07.05.11.06.05.01.1.02.14.01l.16-.02c.08-.02.22-.03.38-.04l3.02-.31c.19-.02.32-.18.31-.37l-.86-10.92c0-.09-.05-.18-.12-.24-.07-.06-.16-.09-.25-.08l-3.49.35c-.21.02-.37.04-.48.06l-.18.02c-.19.03-.31.2-.29.38l1.41,10.86Zm-.39-10.64l3.14-.32.8,10.23-2.68.27c-.09,0-.16.02-.23.02l-1.32-10.18c.08-.01.18-.02.3-.03Zm-6.87,12.03c.02.09.08.17.16.21.03.01.05.03.08.04.06.02.12.02.18,0,0,0,.87-.23,1.73-.39l1.76-.36c.18-.04.3-.21.27-.4l-1.99-10.77c-.02-.09-.07-.17-.14-.22-.08-.05-.17-.07-.26-.05l-2.03.41c-1.02.19-2.04.46-2.05.46-.18.05-.29.23-.25.41l2.53,10.65Zm-.11-10.85l1.69-.34,1.87,10.09-1.43.29c-.56.1-1.1.23-1.44.31l-2.37-9.98c.38-.09,1.03-.24,1.68-.37Zm72.77,47.99c-.11-.2-.19-.33-.19-.33l2.76-1.6s.08.14.2.34c.12.21.29.47.43.76.3.56.59,1.12.59,1.12l-2.81,1.5s-.28-.53-.56-1.06c-.14-.27-.3-.52-.41-.72Zm-1.63-2.7c-.33-.5-.66-1.01-.66-1.01l2.65-1.77s.35.53.69,1.06c.35.52.67,1.07.67,1.07l-2.72,1.67s-.3-.53-.64-1.02Zm-1.54-2.31l-1.42-1.95,2.54-1.93,1.49,2.04-2.61,1.83Zm-3.66-4.77c-.15-.17-.25-.28-.25-.28l2.42-2.08s.1.12.26.3c.16.18.35.43.55.67.4.49.79.99.79.99l-2.49,1.99s-.38-.47-.75-.94c-.19-.23-.37-.48-.52-.64Zm-2.09-2.36c-.42-.43-.84-.86-.84-.86l2.28-2.23s.44.45.88.91c.22.22.42.47.58.64.16.18.26.3.26.3l-2.36,2.14s-.1-.11-.25-.28c-.15-.17-.34-.4-.56-.61Zm.01-4.54c.18.16.28.27.28.27l-2.23,2.28s-.1-.11-.27-.26c-.16-.15-.38-.36-.61-.57-.44-.41-.88-.82-.88-.82l2.14-2.36s.46.43.93.86c.23.22.46.43.64.59Zm-6.72-1.69l1.99-2.49,1.93,1.63-2.08,2.41-1.84-1.55Zm-.32-4.26c.5.38,1.01.77,1.01.77l-1.93,2.54s-.48-.37-.96-.73c-.12-.09-.24-.18-.35-.27-.12-.08-.22-.15-.32-.22-.18-.13-.31-.21-.31-.21l1.83-2.61s.13.09.32.22c.1.07.21.15.33.23.12.09.24.18.37.28Zm-3.04-2.12c.12.08.24.16.33.23.19.14.32.22.32.22l-1.77,2.66s-.12-.08-.31-.21c-.09-.07-.2-.14-.32-.22-.12-.07-.25-.15-.38-.23-.51-.32-1.02-.63-1.02-.63l1.67-2.72s.54.33,1.08.66c.13.08.27.17.39.25Zm-21.43-5.88l.77-3.1s.61.16,1.22.31c.31.08.61.16.84.21.23.07.38.11.38.11l-.88,3.07s-.14-.05-.36-.11c-.22-.05-.51-.13-.8-.2-.58-.15-1.16-.3-1.16-.3Zm-1.52-.37l-2.36-.48.58-3.14,2.47.5-.69,3.12Zm-5.51-4.21c.23.04.55.08.86.13.62.09,1.25.19,1.25.19l-.5,3.15s-.59-.09-1.19-.18c-.3-.04-.59-.09-.82-.12-.22-.04-.37-.05-.37-.05l.38-3.17s.16,0,.39.05Zm-4.36,2.79c-.22-.01-.37-.02-.37-.02l.18-3.19s.16,0,.4.02c.24.01.55.02.87.06.63.06,1.26.12,1.26.12l-.31,3.18s-.6-.06-1.2-.12c-.3-.04-.6-.04-.83-.05Zm61.17,82.12l-3.08-.83.6-2.34,3.1.72-.62,2.45Zm-1.77-6.7c.03-.22.05-.37.05-.37l3.14.53s-.02.16-.06.39c-.03.24-.1.54-.16.85-.12.62-.25,1.24-.25,1.24l-3.12-.64s.12-.59.24-1.18c.05-.3.13-.59.16-.81Zm3.62-2.73c-.09.63-.18,1.25-.18,1.25l-3.15-.45s.09-.6.18-1.19c.06-.6.12-1.2.12-1.2l3.17.33s-.06.63-.12,1.26Zm.33-3.3c-.02.24-.04.39-.04.39l-3.18-.25s.01-.15.04-.38c.01-.23.03-.53.04-.83.03-.6.06-1.2.06-1.2l3.18.13s-.03.63-.06,1.26c-.01.32-.03.63-.04.87Zm-3.02-3.84v-2.41s3.18-.06,3.18-.06v2.53s-3.18-.06-3.18-.06Zm-.17-6.01c-.02-.23-.04-.38-.04-.38l3.17-.26s.02.16.04.39c.01.24.03.55.05.87.03.63.06,1.26.06,1.26l-3.18.14s-.03-.6-.06-1.2c-.02-.3-.03-.6-.04-.83Zm-.32-3.14c-.09-.6-.18-1.19-.18-1.19l3.15-.46s.09.63.19,1.25c.06.63.13,1.26.13,1.26l-3.17.34s-.06-.6-.12-1.2Zm2.67-3.67c.04.23.06.39.06.39l-3.14.54s-.02-.15-.06-.37c-.04-.22-.1-.52-.16-.81-.12-.59-.24-1.18-.24-1.18l3.12-.66s.12.62.25,1.24c.06.31.12.62.17.85Zm-1.39-6.16l.62,2.46-3.1.73-.59-2.34,3.07-.85Zm-9.06,3.38c-.04-.14-.07-.29-.11-.43-.06-.24-.11-.46-.17-.65l-.15-.48c-.05-.18-.24-.28-.42-.23l-5.08,1.47c-.09.02-.16.09-.21.17-.04.08-.05.18-.03.26l.13.43c.04.16.09.35.14.55.03.13.06.27.1.4l.35,1.4c.03.12.12.21.24.25.05.01.11.02.17,0l5.16-1.19c.09-.02.17-.08.22-.16.05-.08.06-.17.04-.26l-.39-1.55Zm-4.85,2.41l-.27-1.08c-.03-.13-.07-.27-.1-.4-.05-.21-.1-.41-.15-.58l-.03-.1,4.43-1.28.04.15c.05.18.1.39.16.62.04.14.07.29.11.43l.3,1.21-4.49,1.04Zm3-8.29c-.1-.31-.23-.62-.33-.86l-.27-.65c-.07-.17-.27-.26-.44-.19l-4.9,2c-.08.03-.15.1-.19.18-.03.08-.04.18,0,.26l.25.6c.09.22.2.47.28.73l.49,1.37c.04.11.13.18.23.21.07.02.14.02.2,0l5-1.73c.09-.03.16-.09.2-.18.04-.08.05-.18.01-.26l-.53-1.5Zm-4.58,2.91l-.37-1.04c-.09-.28-.21-.56-.3-.78l-.11-.27,4.27-1.74.14.33c.1.24.22.52.31.82l.42,1.18-4.35,1.51Zm8.27,16.78v-.49c0-.24,0-.52-.02-.82l-.1-1.89c0-.09-.05-.18-.11-.24-.07-.06-.16-.09-.25-.09l-5.28.36c-.19.01-.33.17-.32.36l.07,1.44c0,.1,0,.19.02.28.01.26.03.5.02.69v.45c0,.09.03.18.1.24.04.04.09.07.15.09.03.01.06.01.1.01l5.29-.06c.19,0,.34-.15.34-.34Zm-5.29-.28v-.09c0-.22,0-.47-.02-.74,0-.09-.01-.19-.01-.28l-.06-1.11,4.6-.31.08,1.54c.02.29.03.56.02.78v.16l-4.61.06Zm-1.05-5.34v.16c.02.09.07.18.14.23.04.03.08.05.12.06.04.01.09.01.13,0l5.25-.63c.18-.02.32-.19.3-.37l-.02-.17c0-.09-.02-.21-.04-.34l-.38-2.52c-.01-.1-.03-.16-.03-.16-.04-.18-.21-.29-.39-.26l-5.21.92c-.09.01-.17.07-.22.15-.05.08-.07.17-.05.26,0,0,0,.04.02.1l.35,2.3c.02.11.03.2.03.27Zm4.86-3.27l.35,2.32s.02.09.02.14l-4.58.55s-.01-.08-.02-.12l-.31-2.08,4.54-.8Zm-4.21-15.49c-.04-.09-.09-.2-.15-.31-.1-.21-.21-.45-.33-.69l-.74-1.41c-.04-.08-.12-.14-.2-.17-.09-.03-.18-.02-.26.03l-4.66,2.51c-.16.09-.23.29-.14.46l.68,1.28c.1.2.2.41.28.59.05.11.1.21.14.3l.19.41c.04.08.11.14.19.18,0,0,.02,0,.02,0,.08.02.16.02.24-.02l4.79-2.25c.17-.08.24-.28.16-.46l-.21-.45Zm-4.72,2.39l-.05-.1c-.04-.09-.08-.18-.13-.29-.09-.19-.19-.41-.3-.62l-.52-.98,4.06-2.19.58,1.1c.11.22.22.45.32.66.05.12.1.23.15.32l.07.14-4.17,1.96Zm-6.3-18.14l-.49-.5c-.18-.19-.41-.43-.65-.64l-1.16-1.08c-.07-.06-.16-.1-.25-.09-.09,0-.18.04-.24.11l-3.56,3.93c-.12.14-.12.35.02.48l1.07.99c.2.18.39.37.56.54l.45.46s.09.07.15.09c.03,0,.06.01.09.01.09,0,.18-.03.24-.1l3.77-3.72c.13-.13.13-.35,0-.48Zm-4.01,3.47l-.21-.21c-.16-.17-.37-.39-.59-.58l-.81-.76,3.1-3.42.92.85c.22.2.43.41.62.61l.25.26-3.28,3.24Zm-.85-7.9s-.16-.15-.41-.33l-1.74-1.33-.42-.31c-.15-.1-.36-.07-.47.08l-3.09,4.31c-.05.08-.08.17-.06.26.02.09.07.17.15.22l1.93,1.47c.2.14.32.26.32.26.04.04.09.06.14.08.04.01.08.02.12.01.09,0,.18-.05.24-.13l3.32-4.13c.11-.14.1-.35-.04-.47Zm-3.6,3.9s-.06-.05-.1-.07l-1.67-1.28,2.69-3.75,1.86,1.42s.08.06.11.08l-2.89,3.59Zm-1.77-7.75l-1.87-1.15-.88-.48c-.16-.09-.37-.03-.46.13l-2.58,4.63c-.04.08-.06.17-.03.26.02.09.08.16.16.21l.74.4,1.73,1.06s.06.03.09.04c.14.04.3-.02.38-.15l2.83-4.48c.05-.08.07-.17.04-.26-.02-.09-.08-.17-.15-.21Zm-3.12,4.3l-1.41-.87-.5-.27,2.24-4.03.57.31,1.56.96-2.47,3.9Zm-6.51-2.73c.2.08.41.18.59.27.11.05.21.1.29.14l.4.2s.04.02.06.02c.07.02.14.02.21,0,.09-.03.16-.09.2-.17l2.3-4.77c.08-.17.01-.37-.16-.46l-.45-.22c-.09-.04-.19-.09-.3-.15-.21-.1-.45-.22-.7-.33l-1.47-.62c-.08-.04-.18-.04-.26,0-.08.03-.15.1-.19.18l-2.04,4.9c-.07.17,0,.37.18.45l1.34.57Zm1.02-5.33l1.15.49c.23.09.45.21.65.31.11.06.22.11.31.15l.14.07-2.01,4.16-.1-.05c-.09-.04-.18-.09-.28-.14-.19-.1-.4-.2-.63-.29l-1.02-.43,1.77-4.26Zm-3.21-1.98l-.47-.17c-.19-.07-.41-.14-.65-.21-.13-.04-.27-.08-.41-.13l-1.52-.48c-.09-.03-.18-.02-.26.03-.08.04-.14.12-.17.21l-1.47,5.09c-.05.18.05.37.23.42l1.38.43c.13.04.26.08.39.12.2.06.4.12.55.18l.42.16s.02,0,.03,0c.08.02.16.01.24-.02.08-.04.15-.11.18-.2l1.75-5c.06-.18-.03-.37-.21-.43Zm-2.07,4.88l-.1-.04c-.17-.06-.37-.12-.59-.19-.12-.04-.25-.08-.38-.12l-1.07-.33,1.28-4.44,1.19.37c.14.04.28.09.42.13.23.07.44.13.61.2l.15.06-1.52,4.36Zm-4.06-6.59c-.05-.08-.13-.13-.22-.15l-2.63-.53c-.31-.07-.51-.09-.53-.09-.18-.02-.34.1-.38.28l-.9,5.23c-.01.09,0,.19.06.26.05.06.11.1.18.12.02,0,.03.01.05.01,0,0,.17.02.41.08l2.4.49c.18.04.36-.08.4-.26l1.18-5.17c.02-.09,0-.18-.04-.26Zm-3.79,4.54s-.09-.02-.13-.03l.78-4.55s.09.02.14.03l2.29.46-1.03,4.5-2.06-.42Zm-3.6-3.78c.02-.19-.12-.36-.3-.37l-1.1-.11c-.17-.02-.35-.03-.56-.04l-1.9-.09c-.08,0-.16,0-.24-.01-.14,0-.29-.01-.44-.02h-2.57c-.09,0-.17,0-.25.01h-.08c-.18.02-.33.17-.32.36l.07,2.36c0,.09.04.18.11.24.04.04.09.06.14.08.04,0,.07.01.11.01h.1s.1-.01.17-.01h2.46c.13,0,.26,0,.38.01.08,0,.16,0,.23.01l1.83.09c.18,0,.34.02.49.03l1.06.11c.09,0,.18-.02.25-.07.07-.06.12-.14.12-.23l.23-2.35Zm-1.58,1.87c-.16-.02-.34-.03-.54-.04l-1.82-.09c-.08,0-.15,0-.23-.01-.14,0-.28-.02-.42-.02h-2.43s-.05-1.67-.05-1.67h2.53c.13,0,.27,0,.4.01.08,0,.16,0,.24.01l1.9.09c.19,0,.36.02.51.04l.76.08-.16,1.67-.71-.07Zm18.33,16.67s.18.11.52.32c.17.11.38.23.63.39.25.16.52.36.82.57.31.21.65.45,1.03.7.36.28.74.58,1.16.89.1.08.21.16.32.24.11.08.22.16.32.26.21.18.43.37.65.56.22.19.46.38.69.58.24.2.46.43.69.64,1.9,1.74,3.96,3.97,5.85,6.6.5.64.92,1.35,1.39,2.04.24.34.44.71.66,1.07.22.36.43.73.65,1.09.2.38.4.76.6,1.14.2.38.42.75.59,1.15.18.39.36.78.55,1.17l.14.29c.05.1.08.2.12.3l.25.6c.16.4.34.8.49,1.2.14.41.29.81.43,1.22l.22.61.18.62c.12.41.25.82.37,1.22.07.2.11.41.16.61.05.21.1.41.15.61.05.2.1.41.15.61s.11.4.14.61c.08.41.16.81.24,1.21.04.2.08.4.12.6.03.2.06.4.09.6.51,3.19.62,6.21.51,8.78-.03,1.29-.19,2.47-.28,3.51-.08.52-.15,1.01-.22,1.46-.03.23-.06.44-.09.65-.04.2-.08.4-.12.58-.16.74-.25,1.33-.35,1.72-.1.39-.16.6-.16.6l-1.1-.27s.05-.2.15-.59c.1-.38.19-.96.34-1.68.04-.18.08-.37.12-.57.03-.2.06-.41.09-.63.06-.44.13-.91.22-1.42.09-1.02.25-2.16.27-3.42.11-2.51,0-5.45-.49-8.55-.03-.19-.06-.39-.08-.58-.04-.19-.08-.39-.12-.59-.08-.39-.16-.79-.23-1.18-.03-.2-.09-.39-.14-.59-.05-.2-.1-.4-.15-.59-.05-.2-.1-.4-.15-.6-.05-.2-.09-.4-.16-.6-.12-.4-.24-.79-.36-1.19l-.18-.6-.22-.59c-.14-.4-.28-.79-.42-1.19-.15-.39-.32-.78-.48-1.17l-.24-.58c-.04-.1-.08-.2-.12-.29l-.14-.29c-.18-.38-.36-.76-.53-1.14-.16-.39-.38-.75-.57-1.12-.2-.37-.39-.74-.58-1.11-.21-.36-.42-.71-.63-1.06-.21-.35-.41-.71-.64-1.04-.45-.68-.87-1.36-1.35-1.99-1.84-2.56-3.85-4.73-5.7-6.43-.23-.21-.44-.43-.68-.63-.23-.19-.46-.38-.67-.56-.22-.19-.43-.37-.64-.54-.1-.09-.21-.17-.31-.25-.11-.08-.21-.16-.31-.23-.41-.31-.78-.6-1.13-.87-.36-.25-.7-.48-1-.68-.3-.2-.56-.4-.8-.55-.24-.15-.45-.27-.62-.38-.33-.21-.51-.32-.51-.32l.59-.98Zm19.84,22.88c-.26-.73-.41-1.14-.41-1.14l1.07-.4s.15.43.42,1.17c.15.37.27.83.43,1.36.15.53.36,1.11.51,1.78.08.33.17.67.26,1.03.04.18.1.35.14.54.04.18.07.37.11.56.14.76.34,1.56.44,2.4.06.42.13.84.19,1.27.05.43.09.87.13,1.31.02.22.04.44.07.66l.03.33.02.34c.02.45.04.9.07,1.35,0,.23.03.45.03.67v.67c0,.45,0,.89,0,1.34,0,.44-.04.88-.06,1.32-.03.43-.03.86-.07,1.29-.04.42-.09.83-.13,1.24-.02.2-.04.4-.06.6-.01.1-.02.2-.03.3-.02.1-.03.19-.05.29-.13.77-.21,1.5-.33,2.16-.14.66-.26,1.27-.37,1.82-.05.27-.12.52-.18.75-.06.23-.11.44-.16.64-.19.77-.3,1.21-.3,1.21l-1.09-.31s.11-.43.29-1.18c.05-.19.1-.4.16-.62.06-.23.13-.47.17-.74.1-.53.22-1.12.36-1.77.12-.65.2-1.36.32-2.11.01-.09.03-.19.05-.28.01-.09.02-.19.03-.29.02-.19.04-.39.06-.59.04-.39.08-.8.12-1.21.04-.41.04-.83.06-1.25.02-.42.05-.85.06-1.28,0-.43,0-.87,0-1.3v-.66c0-.22-.02-.44-.03-.66-.02-.44-.04-.88-.07-1.31l-.02-.33-.03-.32c-.02-.22-.04-.43-.07-.65-.05-.43-.08-.86-.13-1.28-.06-.42-.13-.83-.19-1.24-.1-.82-.29-1.59-.43-2.34-.03-.19-.07-.37-.11-.55-.04-.18-.09-.35-.13-.53-.09-.35-.17-.68-.25-1-.14-.65-.34-1.22-.49-1.73-.16-.51-.27-.97-.42-1.32Zm-28.58-45.93c.18.05.37.09.55.14.37.09.74.19,1.12.29.37.1.75.19,1.13.29.38.09.75.23,1.13.34.76.24,1.53.46,2.3.72.76.28,1.53.56,2.31.85.39.14.77.3,1.16.47.39.16.77.33,1.16.49,3.09,1.35,6.18,2.99,9.16,4.92,2.96,1.94,5.8,4.19,8.42,6.66,2.62,2.47,5.03,5.17,7.16,8.01.26.36.52.72.78,1.07l.39.54.19.27.18.28c.48.73.96,1.47,1.44,2.19.44.75.88,1.49,1.32,2.23.23.36.41.75.61,1.13.2.38.4.75.6,1.13,1.54,3.01,2.78,6.04,3.77,8.98.95,2.95,1.64,5.8,2.13,8.46.94,5.34,1.01,9.87.9,13.02-.04.79-.07,1.49-.1,2.1-.04.61-.11,1.13-.15,1.55-.08.84-.13,1.29-.13,1.29l-1.13-.13s.04-.44.12-1.27c.04-.41.1-.92.14-1.52.03-.6.06-1.29.1-2.07.1-3.09.03-7.54-.89-12.78-.48-2.61-1.16-5.41-2.09-8.31-.97-2.88-2.19-5.86-3.7-8.82-.19-.37-.39-.74-.58-1.11-.2-.37-.38-.75-.6-1.1-.43-.73-.86-1.46-1.29-2.19-.47-.71-.94-1.43-1.41-2.15l-.18-.27-.19-.26-.38-.53c-.26-.35-.51-.7-.77-1.05-2.09-2.79-4.45-5.44-7.03-7.86-2.57-2.42-5.36-4.62-8.27-6.53-2.92-1.9-5.95-3.5-8.99-4.83-.38-.16-.76-.32-1.14-.49-.38-.16-.75-.32-1.14-.46-.76-.28-1.52-.56-2.27-.83-.76-.25-1.51-.47-2.26-.71-.37-.11-.74-.24-1.11-.33-.37-.1-.74-.19-1.11-.28-.37-.09-.73-.19-1.1-.28-.18-.05-.36-.09-.54-.14-.18-.04-.36-.07-.54-.11-.72-.15-1.43-.29-2.13-.43-.35-.08-.7-.13-1.05-.18-.35-.05-.69-.1-1.03-.16-.68-.1-1.35-.22-2.01-.27-5.27-.58-9.7-.39-12.77-.07-1.54.13-2.74.35-3.56.46-.41.07-.72.1-.93.15-.21.04-.32.06-.32.06l-.21-1.12s.44-.1,1.28-.21c.83-.12,2.05-.34,3.62-.47,3.13-.32,7.65-.52,13.02.07.67.05,1.35.17,2.05.27.35.05.7.1,1.05.16.35.05.71.1,1.07.18.71.14,1.44.29,2.18.44.18.04.37.07.55.11Zm-10.16,20.08c.33.03.66.07,1,.1.34.02.67.09,1.01.14.34.05.68.1,1.03.15.35.03.69.13,1.03.2.35.07.7.14,1.04.21.09.02.18.03.26.05l.26.07.52.14c.35.09.7.18,1.05.26.7.2,1.39.44,2.09.64,2.76.92,5.37,2.15,7.69,3.53,2.31,1.38,4.34,2.89,5.96,4.32.11.08.21.17.3.27.1.09.19.18.29.27.19.18.37.35.55.52.18.17.36.32.53.49.16.17.32.33.47.49.3.32.6.6.86.88.25.29.48.55.69.79.21.24.4.45.56.63.15.19.28.36.39.49.21.26.32.41.32.41l-.89.71s-.11-.14-.32-.39c-.1-.13-.23-.29-.38-.48-.16-.18-.34-.38-.55-.61-.2-.23-.43-.49-.67-.77-.25-.27-.54-.55-.84-.86-.15-.15-.3-.31-.46-.48-.15-.17-.34-.31-.51-.48-.18-.16-.36-.33-.54-.5-.09-.09-.18-.17-.28-.26-.09-.09-.19-.18-.29-.26-1.57-1.4-3.54-2.86-5.79-4.2-2.25-1.34-4.79-2.54-7.47-3.43-.68-.19-1.35-.42-2.03-.62-.34-.09-.68-.17-1.02-.26l-.51-.13-.25-.07c-.09-.02-.17-.03-.26-.05-.34-.07-.68-.13-1.02-.2-.34-.06-.67-.16-1.01-.19-.33-.05-.67-.1-1-.15-.33-.05-.66-.12-.98-.13-.33-.03-.65-.06-.97-.09-.32-.03-.64-.08-.95-.08-.32-.02-.63-.03-.93-.04-.15,0-.31-.02-.46-.03-.15-.01-.3-.02-.45-.01-.6,0-1.18,0-1.75,0-.56.04-1.11.06-1.63.09-.26,0-.52.04-.77.07-.25.03-.49.05-.73.07-.24.03-.47.04-.69.07-.22.04-.44.07-.65.1-.42.06-.82.12-1.18.17-.36.08-.69.14-.99.21-.3.06-.57.11-.8.15-.23.05-.43.11-.59.15-.32.08-.49.12-.49.12l-.28-1.1s.17-.05.5-.13c.16-.04.36-.1.6-.15.24-.05.52-.1.83-.16.31-.06.65-.13,1.02-.21.38-.05.78-.11,1.21-.18.22-.03.44-.07.67-.11.23-.03.47-.04.71-.07.25-.03.5-.05.75-.08.26-.02.52-.07.79-.07.54-.02,1.1-.05,1.68-.09.58,0,1.18,0,1.8,0,.15,0,.31,0,.47.01.16,0,.31.02.47.03.32.01.64.03.96.04.33,0,.65.06.98.08Zm11.8-5.35l1.68.62-1.13,2.99-1.57-.58,1.02-3.03Zm2.52.94l1.65.7-1.29,2.92s-.39-.16-.77-.32c-.38-.17-.77-.33-.77-.33l1.18-2.96Zm-4.46-1.53c.43.13.86.27.86.27l-1.66,5.33s-.38-.12-.76-.24c-.19-.06-.38-.13-.53-.16-.14-.04-.24-.06-.24-.06l1.46-5.39s.11.03.27.07c.16.03.38.11.59.17Zm-3.09-.8c.25.04.49.11.68.16.18.05.31.08.31.08l-1.35,5.54s-.11-.03-.27-.07c-.16-.04-.38-.11-.6-.14-.44-.09-.88-.17-.88-.17l1.12-5.59s.5.1.99.2Zm-4.25-.75s.5.08,1,.15c.5.07,1,.15,1,.15l-.97,5.62s-.44-.06-.88-.13c-.44-.07-.88-.14-.88-.14l.73-5.65Zm-1.16-.13l-.33,3.18s-.41-.04-.83-.08c-.21-.02-.42-.04-.57-.06-.16,0-.26,0-.26,0l.21-3.19s.11,0,.28.01c.17.02.39.04.61.06.45.04.89.09.89.09Zm-4.75,2.93l.02-3.19s.44,0,.89,0c.45.02.89.05.89.05l-.13,3.19s-.42-.02-.83-.05c-.42,0-.83,0-.83,0Zm-1.92.03c-.42.02-.83.04-.83.04l-.18-3.19s.45-.02.89-.05c.22-.01.45-.03.61-.03.17,0,.28,0,.28,0l.06,3.19s-.1,0-.26,0c-.16,0-.37.02-.57.03Zm-3.96-2.89l1.78-.18.26,3.18s-.42.04-.83.09c-.41.04-.83.08-.83.08l-.38-3.17Zm-1.15.16l.46,3.16s-.41.06-.83.12c-.21.03-.41.05-.57.08-.15.03-.25.05-.25.05l-.58-3.14s.11-.02.27-.06c.16-.03.39-.06.61-.09.44-.07.88-.13.88-.13Zm46.91,26.58c-.2-.38-.39-.75-.39-.75l2.79-1.53.85,1.6-2.85,1.43s-.2-.37-.4-.75Zm.93,1.88c-.18-.38-.36-.77-.36-.77l2.86-1.4.77,1.64-2.91,1.29s-.18-.38-.36-.77Zm.31-6.17l.93,1.56-2.78,1.56s-.22-.36-.44-.73c-.21-.37-.43-.73-.43-.73l2.72-1.66Zm6.29-7.3c.33.51.67,1.02.67,1.02l-10.4,6.8s-.26-.4-.52-.8c-.07-.1-.13-.2-.19-.3-.07-.09-.13-.17-.18-.25-.11-.15-.18-.24-.18-.24l10.11-7.23s.09.12.22.31c.07.09.15.2.23.32.08.11.16.25.25.37Zm-7.07,1.69c.12.16.2.27.2.27l-4.55,3.42s-.07-.1-.18-.24c-.1-.15-.26-.33-.41-.52-.3-.37-.6-.75-.6-.75l4.4-3.61s.34.42.68.84c.17.21.34.41.46.58Zm-5.02-2.1l1.2,1.36-2.42,2.08s-.28-.32-.56-.63c-.28-.32-.56-.64-.56-.64l2.34-2.17Zm-1.89-1.94c.13.11.29.28.44.44.31.32.63.65.63.65l-2.28,2.22s-.29-.3-.59-.61c-.15-.15-.29-.31-.41-.41-.11-.11-.19-.18-.19-.18l2.2-2.31s.08.08.21.19Zm-1.28-1.19c.12.12.21.19.21.19l-2.14,2.36s-.08-.07-.19-.18c-.12-.11-.27-.26-.43-.39-.32-.27-.65-.54-.65-.54l2.05-2.44s.35.29.69.58c.18.14.34.3.46.41Zm-3.49-2.85l1.44,1.09-1.99,2.49-1.34-1.02,1.9-2.56Zm-2.44-1.71l1.49,1.02-1.83,2.61-1.39-.96,1.73-2.68Z"/>
      </g>
      <path class="cls-6" d="m3.51,100.09c-.82.53-1.29,1.33-1.4,2.41,0,.05-.08.07-.23.05-.15-.01-.22-.05-.21-.1l.22-1.77c.14-.93.25-1.68.3-2.24.05-.47.09-1.15.13-2.04l.14-1.7s.08-.07.23-.05c.15.02.22.05.21.1-.1.96.21,1.75.92,2.37.71.62,1.73,1,3.06,1.13l10.26,1.04c1.72.17,3.2.71,4.42,1.6,1.23.9,2.12,2.07,2.68,3.53.56,1.46.75,3.1.56,4.92-.18,1.82-.69,3.4-1.52,4.73-.83,1.33-1.95,2.33-3.34,3-1.4.67-2.98.91-4.75.73l-11.92-1.21c-.74-.07-1.29-.06-1.64.04s-.62.32-.79.67-.3.9-.37,1.66c0,.07-.08.1-.23.09-.15-.01-.22-.06-.21-.13l.24-1.95c.16-1.13.28-2.02.35-2.69.08-.74.15-1.68.21-2.81l.15-1.89c0-.07.08-.1.23-.09.15.02.22.06.21.13-.08.76-.06,1.33.05,1.7.11.37.34.64.68.82.34.17.88.29,1.62.37l10.56,1.07c2.93.3,5.15-.06,6.67-1.08,1.52-1.01,2.39-2.58,2.6-4.7.21-2.04-.25-3.71-1.38-4.99-1.12-1.28-2.84-2.04-5.16-2.28l-10.3-1.04c-1.33-.13-2.4.06-3.23.59Z"/>
      <path class="cls-6" d="m13.24,64.6c.14.05.2.1.18.15-.35.93-.26,1.79.26,2.6.53.81,1.4,1.44,2.63,1.91l17.76,6.74c.07.03.1.1.08.21-.02.11-.06.18-.12.21l-24.7,9.25,13.5,5.12c1.23.47,2.29.58,3.2.34.91-.24,1.54-.81,1.88-1.71.02-.05.1-.04.24,0,.14.05.2.1.18.15-.25.65-.45,1.14-.6,1.48l-.75,1.86-.78,2.16c-.13.4-.33.97-.61,1.71-.03.07-.11.08-.25.03-.14-.05-.2-.11-.17-.18.39-1.02.33-1.96-.16-2.82-.49-.86-1.35-1.52-2.58-1.99l-14.67-5.57c-1.12.45-1.94.88-2.46,1.31s-.89.93-1.11,1.5c-.02.05-.1.04-.23,0s-.2-.1-.18-.15l.59-1.44c.14-.29.32-.73.53-1.31l.97-2.65c.1-.33.24-.73.41-1.19.07-.18.17-.31.3-.36.13-.06.39-.14.77-.26.68-.19,1.14-.33,1.39-.43l18.4-6.75-11.21-4.25c-1.25-.47-2.33-.59-3.24-.35-.91.24-1.54.81-1.88,1.71-.02.05-.1.04-.24,0s-.2-.1-.18-.15l.6-1.48c.33-.72.59-1.34.78-1.85.17-.46.4-1.12.67-1.97l.56-1.58s.1-.04.23,0Z"/>
      <path class="cls-6" d="m38.55,65.5c.36.08.69,0,.98-.24s.65-.69,1.08-1.36c.04-.06.12-.05.25.02.13.08.17.15.13.21-.43.69-.79,1.23-1.06,1.61l-1.53,2.37-1.43,2.34c-.24.43-.59,1-1.04,1.72-.03.04-.1.02-.23-.06-.13-.08-.17-.14-.15-.18.42-.67.68-1.19.77-1.58.09-.38.02-.72-.21-1.03-.23-.31-.66-.66-1.29-1.05l-14.54-9.14c-.63-.39-1.12-.63-1.49-.7-.37-.07-.71.02-1.02.26-.31.24-.68.7-1.1,1.37-.03.04-.1.02-.23-.06s-.18-.14-.15-.18l1.1-1.68c.65-.94,1.16-1.7,1.52-2.29.41-.65.89-1.47,1.46-2.46l.98-1.62c.04-.06.12-.05.25.02.12.08.17.15.13.21-.41.65-.65,1.17-.72,1.56-.07.39.01.74.25,1.03.24.3.67.64,1.3,1.04l14.48,9.1c.65.41,1.15.65,1.51.73Z"/>
      <path class="cls-6" d="m37.08,32.93c.95-.75,1.78-1.29,2.49-1.61.21-.11.37-.15.49-.12.12.03.29.13.51.3l4.1,3.16c.05.05.05.13-.02.24-.07.11-.15.15-.26.11-1.96-.88-3.77-1.21-5.43-1-1.66.21-3.11.97-4.34,2.29-1.15,1.23-1.84,2.64-2.08,4.22-.24,1.58,0,3.23.71,4.92.72,1.7,1.9,3.32,3.54,4.85,1.67,1.55,3.39,2.63,5.18,3.23,1.79.6,3.49.72,5.11.35,1.62-.37,3.03-1.21,4.24-2.51,1.16-1.25,1.8-2.61,1.92-4.1.12-1.48-.25-3.33-1.1-5.54-.04-.07,0-.14.1-.21.1-.07.18-.08.24-.03l2.98,3.54c.18.24.29.41.32.5.03.1,0,.26-.08.49-.96,2.22-2.23,4.18-3.81,5.88-1.8,1.94-3.79,3.33-5.95,4.17-2.16.85-4.3,1.09-6.43.72-2.13-.36-4.04-1.33-5.72-2.9-1.72-1.6-2.83-3.48-3.35-5.63-.51-2.15-.42-4.36.28-6.64.7-2.27,1.94-4.37,3.73-6.29.79-.85,1.67-1.65,2.62-2.4Z"/>
      <path class="cls-6" d="m79.51,30.81c.08.13.07.22-.04.29-.42.27-1.08.66-1.98,1.17-.95.54-1.62.94-2.01,1.19-.52.33-1.14.76-1.87,1.28-.68.49-1.23.87-1.65,1.14-.08.05-.17.02-.24-.11-.08-.13-.08-.21,0-.27.54-.35.9-.65,1.06-.92.17-.27.16-.55-.03-.84-.23-.35-.81-.82-1.76-1.39l-4.82-2.88-7.7,4.9.51,3.5c.11.78.34,1.43.67,1.95.48.75,1.11,1.17,1.91,1.25.8.08,1.65-.17,2.54-.74.1-.07.2-.04.28.09s.07.22-.04.29c-.38.24-.93.56-1.67.97-.82.46-1.52.88-2.11,1.25-.56.36-1.23.81-2,1.36-.68.49-1.24.88-1.68,1.16-.08.05-.17.02-.24-.11-.08-.13-.08-.21,0-.27.58-.37,1-.8,1.24-1.3.24-.49.37-1.17.38-2.04s-.11-2.08-.33-3.64l-2.7-19.26c0-.09.08-.18.22-.27.17-.11.28-.13.34-.08l17.62,10.43c1.67,1.02,2.93,1.66,3.77,1.92.84.26,1.52.22,2.04-.11.11-.07.2-.04.28.09Zm-21.19,2.43l6.83-4.34-8.14-4.85,1.31,9.19Z"/>
      <path class="cls-6" d="m107.47,22.65c.04.14.04.22,0,.23-.81.23-1.45.41-1.94.52l-2.65.73-2.66.81c-.45.15-1.06.34-1.84.57-.07.02-.13-.04-.17-.18-.04-.14-.03-.22.05-.25,1-.29,1.64-.6,1.93-.94.29-.34.32-.89.1-1.65l-.21-.6-4.96-14.37-2.37,19.34c-.02.11-.1.18-.24.23-.14.04-.25.02-.33-.06l-13.97-14.54,3.43,12.95c.35,1.29.89,2.22,1.64,2.79.74.57,1.6.71,2.58.43.07-.02.13.04.17.18.04.14.03.22-.05.24-.64.19-1.14.32-1.51.4l-1.97.53-2.24.68c-.38.13-.88.29-1.52.48-.07.02-.13-.04-.17-.18s-.03-.22.04-.24c.97-.28,1.64-.87,2-1.77.36-.9.37-1.99.03-3.25l-3.94-14.85-.05-.03c-.73-.74-1.41-1.24-2.04-1.5s-1.27-.29-1.94-.1c-.07.02-.13-.04-.17-.18s-.03-.22.04-.24l1.69-.45c.34-.07.77-.18,1.29-.33l1.88-.58c.21-.09.48-.18.81-.27.31-.09.58-.05.81.11.23.17.68.59,1.37,1.27l11.98,12.34,2.29-17.5c.05-.37.13-.65.25-.82.12-.17.3-.3.57-.38.21-.06.46-.12.74-.17.28-.05.6-.13.96-.24l2.09-.64c.33-.12.8-.27,1.42-.45.07-.02.13.04.17.18.04.14.03.22-.04.25-1.12.32-1.86.78-2.23,1.38-.37.6-.39,1.36-.07,2.3l5.53,15.94c.26.72.5,1.23.73,1.53.23.3.53.45.91.47.38.02.94-.08,1.67-.29.05-.01.09.05.13.19Z"/>
      <path class="cls-6" d="m115.26,21.94c.18.35.52.6,1,.74.49.14,1.26.19,2.32.17.07,0,.11.07.12.22,0,.15-.03.22-.11.23-1.01.02-1.8.03-2.37.02l-3.23.04-2.71.1c-.49.04-1.16.07-2,.09-.07,0-.11-.07-.12-.22,0-.15.03-.22.11-.23.79-.02,1.36-.1,1.72-.23.36-.13.59-.38.71-.74.11-.36.16-.91.14-1.66l-.42-17.17c-.02-.74-.09-1.28-.23-1.63-.13-.34-.38-.58-.76-.71-.37-.13-.94-.18-1.71-.16-.07,0-.11-.07-.12-.22s.03-.22.11-.23h1.97c1.14.01,2.04.01,2.71,0,.59-.01,1.3-.07,2.11-.16.32-.03.73-.07,1.22-.1.49-.04,1.06-.06,1.71-.08,2.52-.06,4.53.42,6.01,1.43,1.48,1.02,2.25,2.62,2.31,4.82.04,1.53-.33,2.84-1.09,3.92-.77,1.08-1.77,1.91-3,2.49-1.23.58-2.51.88-3.82.91-.67.02-1.25-.03-1.75-.14-.05,0-.08-.06-.08-.18,0-.07.01-.15.05-.22s.08-.1.13-.08c.37.09.79.13,1.26.12,1.14-.03,2.07-.58,2.8-1.66.73-1.08,1.07-2.6,1.02-4.55s-.5-3.45-1.35-4.49c-.85-1.04-2.07-1.55-3.66-1.51-.69.02-1.16.19-1.4.52-.24.33-.35.96-.33,1.9l.42,16.95c.02.79.12,1.36.3,1.72Z"/>
      <path class="cls-6" d="m150.65,5.64c-.44-.87-1.19-1.42-2.25-1.64-.05-.01-.06-.09-.03-.23s.07-.21.12-.2l1.74.4c.91.24,1.64.42,2.2.53.46.1,1.13.21,2.01.34l1.68.31s.06.09.03.23c-.03.14-.07.21-.12.2-.94-.2-1.76.03-2.45.67-.69.64-1.17,1.61-1.44,2.92l-2.1,10.1c-.35,1.7-1.04,3.11-2.06,4.23-1.02,1.13-2.28,1.89-3.8,2.3-1.51.41-3.16.42-4.96.05-1.79-.37-3.31-1.04-4.55-2.01-1.24-.97-2.12-2.18-2.63-3.64-.52-1.46-.59-3.06-.23-4.8l2.44-11.73c.15-.73.2-1.27.13-1.64-.06-.37-.26-.65-.58-.86-.32-.21-.86-.39-1.61-.54-.07-.01-.09-.09-.06-.24s.08-.21.15-.2l1.92.44c1.1.28,1.98.49,2.64.62.73.15,1.65.32,2.78.5l1.86.35c.07.02.09.1.06.24s-.08.21-.15.2c-.75-.16-1.32-.2-1.7-.13-.38.07-.68.27-.88.59-.21.32-.39.85-.54,1.57l-2.16,10.39c-.6,2.88-.47,5.13.38,6.75.85,1.62,2.32,2.64,4.4,3.08,2.01.42,3.71.13,5.1-.85,1.39-.99,2.33-2.62,2.8-4.89l2.11-10.14c.27-1.31.19-2.4-.25-3.27Z"/>
      <path class="cls-6" d="m164.35,15.43c.13.82.39,1.6.78,2.36.39.75.95,1.7,1.68,2.85.8,1.23,1.41,2.28,1.84,3.12.43.85.7,1.77.82,2.76s-.05,1.99-.52,3.01c-.53,1.17-1.33,2.07-2.37,2.69-1.05.62-2.24.93-3.59.93-1.34,0-2.7-.32-4.08-.94-1.01-.46-2.01-1.09-2.98-1.87-.97-.78-1.57-1.43-1.8-1.95-.07-.14-.12-.26-.14-.37-.02-.1.01-.25.09-.43l2.35-5.41.02-.03c.04-.09.12-.12.24-.08.12.04.17.11.15.21.05,1.68.13,3.06.25,4.15.12,1.09.41,2.13.89,3.14.48,1.01,1.21,1.74,2.2,2.19.9.41,1.75.51,2.56.29.81-.22,1.48-.91,2.01-2.08.45-.99.63-1.96.53-2.9-.1-.94-.35-1.82-.74-2.62-.39-.81-.98-1.82-1.75-3.04-.76-1.19-1.33-2.17-1.7-2.94-.37-.77-.61-1.6-.72-2.49-.11-.89.05-1.81.48-2.76.54-1.19,1.35-2.04,2.41-2.55,1.06-.51,2.22-.71,3.48-.61,1.26.1,2.49.42,3.68.97.79.36,1.55.8,2.3,1.31.74.52,1.32.99,1.72,1.42.16.18.25.34.27.47.02.13,0,.28-.08.43l-2.27,4.96c-.03.07-.11.09-.24.08s-.19-.07-.18-.14l.02-.76c.09-1.67-.02-3.18-.32-4.51-.3-1.33-1.13-2.31-2.48-2.93-.9-.41-1.76-.49-2.57-.23-.81.25-1.44.88-1.89,1.87-.37.81-.49,1.62-.36,2.45Z"/>
      <path class="cls-6" d="m195.01,58.16c-.1.11-.18.14-.23.09-.63-.59-1.13-1.08-1.49-1.45l-2.06-1.99-2.46-2.26c-.34-.29-.79-.69-1.35-1.22-.05-.05-.03-.13.07-.24.1-.11.18-.14.23-.09.67.63,1.2,1.04,1.59,1.24.39.2.76.22,1.1.07.35-.15.78-.5,1.31-1.06l5.85-6.21-8.73-8.21-5.85,6.21c-.51.54-.83.99-.97,1.35-.14.36-.1.73.13,1.11.22.38.66.88,1.33,1.51.04.03,0,.1-.1.21-.1.11-.17.14-.21.11-.63-.59-1.13-1.08-1.49-1.45l-2.33-2.24-2.05-1.88c-.38-.32-.88-.78-1.51-1.37-.04-.03,0-.1.1-.21.1-.11.17-.14.21-.11.63.59,1.13.98,1.51,1.16.37.18.74.19,1.09.03.35-.16.78-.51,1.29-1.05l11.77-12.51c.51-.54.83-.99.96-1.34s.1-.71-.08-1.07c-.19-.36-.59-.83-1.2-1.41-.05-.05-.03-.13.07-.24.1-.11.18-.14.23-.09l1.43,1.4c.79.82,1.44,1.46,1.95,1.94.68.64,1.49,1.37,2.43,2.18l1.51,1.37s0,.1-.1.21c-.1.11-.17.15-.21.11-.65-.61-1.18-1.01-1.59-1.19-.41-.18-.79-.19-1.16-.04-.36.15-.8.5-1.31,1.04l-5.16,5.49,8.73,8.21,5.16-5.48c.51-.54.83-.99.97-1.36.14-.36.1-.74-.1-1.14-.2-.4-.64-.91-1.31-1.54-.05-.05-.03-.13.07-.24.1-.11.18-.14.23-.09l1.3,1.27c.87.88,1.66,1.66,2.38,2.34.49.46,1.2,1.09,2.13,1.9l1.54,1.4c.05.05.03.13-.07.24-.1.11-.18.14-.23.09-.61-.58-1.11-.95-1.5-1.13s-.75-.19-1.09-.03c-.34.16-.76.51-1.27,1.05l-11.77,12.51c-.51.54-.84.99-.98,1.34-.15.35-.12.71.08,1.07.2.36.62.84,1.25,1.43.05.05.03.13-.07.24Z"/>
      <path class="cls-6" d="m209.57,70.7c.04.06.06.13.06.2,0,.07,0,.12-.03.13-1.75.84-3.29,1.69-4.62,2.56-.17.11-.31.15-.42.14-.11-.02-.23-.12-.35-.3l-8.93-13.76c-.04-.06,0-.13.13-.21.12-.08.21-.09.25-.03.43.66.8,1.11,1.09,1.35.3.23.63.3,1,.21.37-.09.86-.34,1.49-.74l14.41-9.35c.62-.4,1.05-.75,1.27-1.04.22-.29.29-.63.2-1.02s-.34-.9-.76-1.54c-.04-.06,0-.13.13-.21s.21-.09.25-.03l8.56,13.2c.13.21.11.37-.08.49l-4.1,2.75s-.11,0-.21-.11c-.1-.1-.12-.18-.07-.24.99-1.11,1.52-2.25,1.59-3.42s-.31-2.39-1.15-3.68l-.61-.93c-.4-.62-.84-.99-1.29-1.11-.46-.12-.97,0-1.53.37l-6.35,4.12,1.68,2.58c.78,1.2,1.59,1.99,2.42,2.37.83.37,1.62.32,2.37-.17.06-.04.13,0,.2.11.07.11.08.19.02.23l-2.82,1.79-1.47,1c-.68.5-1.23.88-1.64,1.15-.04.03-.1-.02-.18-.15s-.1-.2-.06-.23c.85-.55,1.31-1.31,1.37-2.28.06-.97-.3-2.07-1.1-3.29l-1.66-2.55-7.04,4.56c-.6.39-.97.79-1.12,1.21-.14.42-.05.88.27,1.37l.67,1.03c1.05,1.62,2.22,2.7,3.52,3.24,1.3.55,2.79.59,4.48.15.04-.03.09,0,.14.08Z"/>
      <path class="cls-6" d="m221.5,70.52c-.08,0-.13-.06-.17-.18-.03-.12-.01-.19.06-.22.96-.25,2.2-.6,3.72-1.03,1.52-.43,2.64-.79,3.39-1.06.12-.04.2,0,.25.13.05.13.01.21-.1.26-.51.19-.52.95-.03,2.27.67,2.02,1.5,4.36,2.5,7.03.51,1.37,1.07,2.81,1.69,4.32l.91,2.35c.33.88.63,1.5.89,1.87.27.36.6.54.99.52.1-.01.18.05.22.17.05.13.03.21-.07.24-.72.19-1.86.53-3.42,1.02-1.56.49-2.8.91-3.73,1.25-.07.03-.13-.02-.17-.13-.04-.12-.03-.2.03-.25,1.66-1.01,2.75-2.16,3.29-3.44.54-1.28.55-2.62.03-4.01-.25-.67-.56-1.06-.93-1.18-.37-.11-.96-.02-1.78.28l-16.03,5.97c-.72.27-1.21.53-1.49.79s-.39.61-.36,1.04c.03.44.21,1.09.52,1.94.03.07-.03.13-.17.18s-.22.04-.25-.03c-.31-.83-.55-1.5-.7-2l-1.04-2.9-1.08-2.8c-.21-.48-.47-1.15-.79-2-.03-.07.03-.13.17-.18.14-.05.22-.04.25.03.31.83.6,1.43.87,1.8.27.36.6.56.99.58.39.03.94-.09,1.63-.35l16.1-5.99c.79-.29,1.28-.6,1.48-.91.2-.31.18-.79-.06-1.44-1.03-2.76-3.56-4.07-7.6-3.94Z"/>
      <path class="cls-6" d="m215.51,103.62c.83-2.18,2.08-3.92,3.76-5.21,1.68-1.3,3.61-2.06,5.8-2.3,2.34-.25,4.49.15,6.47,1.2,1.98,1.04,3.59,2.61,4.85,4.69,1.25,2.08,2.03,4.49,2.32,7.22.13,1.18.16,2.37.1,3.57-.06,1.2-.2,2.17-.42,2.92-.07.28-.13.44-.19.49-.06.04-.26.1-.6.16l-5.08,1.02c-.07,0-.13-.05-.17-.19-.04-.13-.01-.22.09-.25.78-.41,1.61-1.02,2.49-1.83.88-.81,1.62-1.84,2.21-3.07.59-1.23.8-2.61.64-4.14-.17-1.57-.75-2.97-1.75-4.18-1-1.21-2.34-2.11-4.02-2.69-1.68-.58-3.58-.76-5.69-.53-2.31.25-4.33.9-6.06,1.97-1.73,1.07-3.01,2.43-3.86,4.09-.84,1.66-1.16,3.46-.96,5.4.11,1.01.3,1.77.58,2.29.28.52.75.87,1.42,1.04.67.18,1.63.2,2.88.07,1.28-.14,2.16-.3,2.65-.51.49-.2.79-.55.92-1.05.12-.5.12-1.35-.01-2.56-.02-.15.07-.23.27-.25.07,0,.14,0,.21.03s.1.07.11.12c.1,2.1.22,3.81.36,5.11.13,1.25.31,2.55.53,3.9.01.1-.07.16-.24.19-.17.03-.26-.02-.28-.14-.02-.45-.14-.75-.34-.92s-.59-.24-1.16-.23c-.57,0-1.56.09-2.96.24-1.11.12-1.89.24-2.35.38-.46.14-.75.21-.87.22-.15.02-.25,0-.3-.04-.05-.04-.12-.15-.18-.32-1.03-3.1-1.67-5.92-1.94-8.45-.3-2.8-.03-5.29.79-7.47Z"/>
      <g class="cls-10">
        <g class="cls-9">
          <g>
            <path class="cls-8" d="m121.5,105.02c0-.66.27-1.18.72-1.68,2.15-2.38,4.67-4.28,7.47-5.81.37-.2.83-.28,1.08-.68h.48c1.47,3.22,3.28,6.26,4.94,9.39,1.49,2.82,2.98,5.63,4.54,8.4.47.83.36,1.15-.52,1.53-6.45,2.74-12.02,6.69-16.44,12.18-2.35,2.91-4.2,6.09-5.25,9.71-.06.19-.13.38-.22.55-.03.05-.13.06-.24.11-.28-.18-.18-.42-.13-.7,1.27-7.15,5.35-12.57,10.64-17.22,2.46-2.16,5.11-4.07,7.96-5.68.73-.41.95-.68.51-1.51-2.27-4.29-4.47-8.62-6.69-12.94-.21-.41-.32-.91-1.02-.62-2.74,1.12-5.26,2.61-7.56,4.48-.14.11-.2.34-.29.51h.02Z"/>
            <path class="cls-5" d="m116.82,139.05c-2.02-1.5-3.89-2.85-5.9-3.99-.61-.34-.49-.84-.49-1.34,0-9.36.13-18.73-.07-28.09-.06-2.78.61-4.46,3.3-5.3,1.07-.34,2.04-1.02,3.16-1.6v40.32Z"/>
            <path class="cls-5" d="m108.69,109.75v23.93c-1.46-.69-2.82-1.53-4.3-1.98-1.74-.54-2.2-1.47-2.15-3.25.14-5.14.07-10.28.04-15.43,0-.76.2-1.11.95-1.35,1.81-.57,3.59-1.25,5.46-1.92Z"/>
            <path class="cls-8" d="m118.99,138.77c3.64-7.04,9.11-12.08,15.73-15.96,2.97-1.74,6.09-3.14,9.38-4.13.73-.22.98-.39.57-1.19-2.1-4.12-4.16-8.25-6.18-12.41-.34-.7-.7-.89-1.33-.46-1.16.78-1.22-.36-1.63-.92-.54-.73.03-.94.53-1.22q3.24-1.84,4.94,1.44c2.53,4.93,5.02,9.87,7.6,14.77.57,1.08.31,1.32-.76,1.58-9.06,2.2-17.03,6.41-23.67,13.03-1.47,1.47-2.81,3.05-4.05,4.71-.24.32-.38.81-1.13.76Z"/>
            <path class="cls-5" d="m116.75,140.93c-9.78-4.32-19.62-6.65-30.27-5.71.75-2.06,1.44-3.98,2.14-5.89.27-.74.89-.36,1.34-.32,5.95.52,11.51,2.35,16.81,5.04,3.09,1.57,6.03,3.41,8.79,5.51.37.28.8.52,1.19,1.37Z"/>
            <path class="cls-5" d="m129.36,133.67c2.61-.93,5.08-2.19,7.75-2.97,2.87-.84,5.79-1.43,8.77-1.73.76-.08,1.14.1,1.39.86.56,1.74,1.21,3.44,1.82,5.13-.33.35-.66.19-.95.17-9.75-.69-18.99,1.39-27.89,5.23-.6.26-1.24.68-1.88.05.42.07.76-.06,1.1-.32,3.12-2.42,6.37-4.62,9.89-6.43Z"/>
            <path class="cls-8" d="m129.36,133.67c-3.52,1.8-6.77,4.01-9.89,6.43-.34.26-.68.39-1.1.32.21-.93,1.19-1.01,1.75-1.57,7.56-7.48,16.7-11.95,27.08-13.94,1.06-.2,1.07-.52.58-1.26-.11-.17-.18-.35-.27-.53-1.07-2.14-1.03-2.2,1.36-2.5.37-.05.6.02.77.36,1.06,2.13,2.12,4.25,3.27,6.55-2-.01-3.82-.02-5.63.15-6.29.59-12.07,2.73-17.61,5.66-.13.07-.22.22-.32.34Z"/>
            <path class="cls-5" d="m100.6,120.83v9.21c-2.02-.52-3.99-1.05-5.97-1.53-.52-.13-.44-.47-.44-.82,0-1.19,0-2.39,0-3.58,0-.43.04-.75.52-.93,1.92-.74,3.83-1.52,5.9-2.35Z"/>
            <path class="cls-8" d="m121.48,105.02c-.1.01-.19.02-.29.03.01.02.03.07.03.07.09-.03.18-.07.27-.1,0,0-.02,0-.02,0Z"/>
          </g>
        </g>
      </g>
      <path class="cls-3" d="m9.36,169.85c-.14.04-.23,0-.26-.12-.14-.47-.33-1.21-.57-2.22-.26-1.05-.45-1.8-.58-2.25-.17-.59-.41-1.3-.7-2.14-.28-.79-.49-1.42-.63-1.89-.03-.09.03-.16.17-.2.14-.04.23-.01.25.08.18.61.37,1.04.58,1.27.21.23.48.3.81.21.4-.12,1.01-.55,1.81-1.3l4.08-3.8-2.54-8.71-3.48-.48c-.77-.11-1.46-.07-2.05.1-.85.25-1.42.74-1.72,1.48-.3.74-.3,1.62,0,2.63.03.12-.02.2-.16.24-.14.04-.23,0-.26-.12-.12-.42-.28-1.04-.47-1.86-.22-.91-.42-1.7-.61-2.36-.19-.64-.43-1.4-.74-2.28-.28-.79-.5-1.43-.64-1.93-.03-.09.03-.16.17-.2.14-.04.23-.01.25.08.19.66.49,1.18.89,1.55.4.37,1.02.68,1.84.92.83.25,2.02.47,3.56.69l19.14,2.75c.08.03.15.12.2.29.05.19.05.31-.01.35l-14.84,13.94c-1.44,1.32-2.39,2.34-2.87,3.07-.48.73-.63,1.39-.46,1.98.03.12-.02.2-.16.24Zm3.54-20.91l2.25,7.72,6.89-6.43-9.14-1.29Z"/>
      <path class="cls-3" d="m23.53,194.76c-.13.07-.2.09-.23.05l-3.29-5.68c-.27-.47.07-1.83,1.02-4.09.95-2.26,2.43-5.17,4.42-8.74-.12-.16-.27-.4-.46-.72-.48-.83-.81-1.42-.98-1.77l-7.06,4.09c-.66.38-1.11.71-1.34.99-.24.28-.32.6-.25.97.07.37.31.9.7,1.58.02.04-.03.1-.15.17-.13.07-.2.09-.23.05-.41-.7-.72-1.26-.93-1.68l-1.37-2.44-1.38-2.31c-.27-.41-.61-.98-1.03-1.71-.04-.06,0-.13.14-.21s.21-.08.25-.02c.39.68.73,1.15,1.02,1.39.28.25.62.34.99.28.38-.06.88-.28,1.52-.65l14.78-8.56c.64-.37,1.08-.7,1.31-.97.24-.28.32-.61.25-1-.07-.39-.29-.91-.68-1.57-.02-.04.03-.1.15-.18.13-.07.2-.09.23-.05l.95,1.71c.52,1,.95,1.79,1.29,2.37.42.72.89,1.46,1.41,2.21.18.27.4.6.66,1,.26.4.54.86.84,1.37,1.12,1.94,1.63,3.64,1.54,5.12-.1,1.48-.78,2.59-2.06,3.33-1.17.68-2.42.97-3.73.88-1.32-.09-2.57-.5-3.76-1.23-1.57,3.18-2.74,5.77-3.52,7.75-.78,1.99-1.24,3.62-1.39,4.9-.14,1.28.03,2.34.53,3.19.02.04-.03.1-.15.17Zm2.32-19.55c.71,1.23,1.58,1.92,2.58,2.06,1.01.14,2.28-.23,3.81-1.12,1.74-1.01,2.8-1.96,3.16-2.86.36-.89.27-1.82-.29-2.78-.49-.85-1-1.37-1.53-1.54-.53-.18-1.17-.05-1.91.38l-6.77,3.92c.21.56.53,1.2.95,1.93Z"/>
      <path class="cls-3" d="m38.07,186.6c-.07.03-.14,0-.22-.1-.07-.1-.09-.17-.03-.22.78-.6,1.79-1.39,3.01-2.37,1.22-.98,2.12-1.74,2.7-2.28.09-.08.18-.08.27.02.09.1.09.19,0,.27-.39.37-.11,1.07.85,2.09,1.39,1.59,3.06,3.42,4.99,5.48.99,1.06,2.06,2.16,3.21,3.31l1.74,1.8c.64.68,1.15,1.14,1.54,1.37.38.23.75.26,1.11.1.09-.05.18-.02.27.07.09.1.1.18.03.25-.59.45-1.5,1.2-2.75,2.25-1.24,1.05-2.22,1.91-2.94,2.58-.05.05-.12.03-.21-.06-.08-.09-.11-.17-.07-.24,1.13-1.56,1.69-3.04,1.69-4.42,0-1.38-.5-2.61-1.51-3.69-.49-.52-.93-.76-1.31-.72-.38.04-.89.35-1.52.94l-12.4,11.64c-.56.52-.91.95-1.06,1.3s-.13.71.07,1.1.61.92,1.23,1.58c.05.05.02.13-.08.23-.11.1-.19.12-.24.07-.61-.65-1.08-1.17-1.41-1.56l-2.07-2.26-2.07-2.15c-.37-.36-.87-.87-1.49-1.54-.05-.05-.02-.13.09-.23.11-.1.19-.12.24-.07.61.65,1.1,1.08,1.49,1.31.38.23.76.28,1.13.15.37-.13.82-.44,1.36-.95l12.46-11.69c.61-.57.95-1.04,1.01-1.4.06-.36-.14-.8-.61-1.3-2-2.13-4.83-2.36-8.49-.69Z"/>
      <path class="cls-3" d="m61.34,220.96c.06.04.1.1.13.16.03.07.04.11.02.13-1.31,1.43-2.41,2.79-3.32,4.07-.11.16-.23.26-.34.28-.11.03-.25-.02-.44-.15l-13.33-9.39c-.06-.04-.05-.12.04-.24.08-.12.16-.16.22-.12.64.45,1.15.73,1.51.84.36.1.7.05,1-.17.31-.22.67-.63,1.1-1.23l9.84-13.97c.43-.6.69-1.08.78-1.43.1-.35.03-.69-.19-1.01-.22-.32-.65-.7-1.27-1.14-.06-.04-.05-.12.04-.25s.16-.16.22-.12l12.79,9.01c.2.14.24.3.11.48l-2.77,4.05s-.11.03-.23-.03c-.13-.06-.18-.12-.15-.2.5-1.39.57-2.64.2-3.74-.37-1.1-1.17-2.09-2.42-2.97l-.9-.64c-.6-.43-1.14-.61-1.6-.54-.47.06-.89.37-1.27.91l-4.33,6.15,2.5,1.76c1.17.82,2.2,1.25,3.11,1.29.91.04,1.62-.31,2.12-1.03.04-.06.12-.05.23.03.11.08.14.15.1.21l-1.94,2.69-.99,1.47c-.44.71-.8,1.27-1.09,1.67-.03.04-.1.02-.22-.07-.12-.09-.17-.15-.14-.19.58-.82.72-1.7.42-2.61s-1.04-1.8-2.23-2.63l-2.47-1.74-4.8,6.82c-.41.58-.6,1.09-.58,1.53.02.44.28.83.76,1.17l1,.7c1.57,1.1,3.05,1.67,4.45,1.69,1.4.02,2.79-.48,4.18-1.52.03-.04.08-.03.16.02Z"/>
      <path class="cls-3" d="m74.84,215.44c.13.82.38,1.6.77,2.34s.94,1.69,1.66,2.84c.79,1.23,1.39,2.27,1.82,3.11.42.84.69,1.76.81,2.75.11.99-.06,1.98-.52,2.99-.54,1.16-1.32,2.05-2.37,2.67s-2.23.92-3.57.91c-1.34,0-2.69-.32-4.05-.95-1-.46-1.99-1.09-2.96-1.87-.97-.78-1.56-1.43-1.79-1.94-.07-.14-.12-.26-.14-.37-.02-.1.01-.25.09-.42l2.35-5.37.02-.03c.04-.09.12-.11.24-.07.12.04.17.11.15.21.04,1.67.12,3.05.23,4.13.11,1.08.4,2.12.88,3.12.47,1,1.2,1.73,2.18,2.18.89.41,1.74.51,2.54.3.8-.21,1.47-.9,2.01-2.06.45-.98.63-1.94.53-2.88-.1-.94-.34-1.81-.73-2.61-.39-.8-.97-1.81-1.73-3.03-.75-1.19-1.31-2.16-1.68-2.93-.37-.76-.6-1.59-.71-2.48-.11-.89.06-1.8.49-2.74.55-1.18,1.35-2.03,2.4-2.53,1.06-.5,2.21-.7,3.46-.6,1.25.1,2.47.43,3.65.97.78.36,1.54.8,2.28,1.31.74.52,1.3.99,1.7,1.42.16.18.25.34.27.47.02.13,0,.28-.08.43l-2.27,4.93c-.03.07-.11.09-.24.07-.13-.02-.19-.07-.18-.14l.03-.76c.09-1.67-.01-3.16-.31-4.49-.3-1.33-1.11-2.3-2.45-2.92-.89-.41-1.74-.49-2.55-.24-.81.25-1.44.87-1.89,1.85-.37.8-.49,1.61-.37,2.43Z"/>
      <path class="cls-3" d="m116.22,243.28c-.02.15-.09.21-.21.19-.49-.07-1.24-.2-2.25-.4-1.06-.2-1.83-.34-2.29-.4-.61-.09-1.36-.17-2.24-.25-.83-.07-1.5-.14-1.98-.21-.1-.01-.14-.09-.11-.24.02-.15.08-.21.18-.2.63.09,1.1.09,1.4,0,.3-.09.47-.31.52-.65.06-.41-.08-1.14-.43-2.19l-1.78-5.29-8.98-1.29-1.88,2.97c-.42.66-.67,1.3-.76,1.9-.13.88.09,1.6.64,2.18.55.58,1.35.94,2.4,1.09.12.02.17.1.15.25-.02.15-.09.21-.21.19-.44-.06-1.07-.18-1.89-.34-.92-.18-1.72-.32-2.4-.42-.66-.09-1.45-.18-2.38-.27-.84-.07-1.51-.14-2.02-.21-.1-.01-.14-.09-.11-.24.02-.15.08-.21.18-.2.68.1,1.27.04,1.78-.17.5-.21,1.04-.65,1.6-1.3.56-.65,1.27-1.64,2.1-2.96l10.42-16.29c.06-.07.17-.09.34-.06.2.03.3.08.31.16l6.56,19.28c.6,1.85,1.14,3.15,1.61,3.88.47.74,1,1.15,1.61,1.24.12.02.17.1.15.25Zm-17.57-11.87l7.96,1.14-3.01-8.93-4.95,7.79Z"/>
      <path class="cls-3" d="m127.92,242.62c-.39.01-.88.04-1.46.07-.58.03-1.22.08-1.93.16l-2.71.31c-.49.07-1.15.15-1.98.24-.05,0-.08-.07-.09-.21s0-.22.05-.23c.78-.08,1.35-.2,1.71-.36.36-.16.58-.42.68-.79.1-.37.11-.92.04-1.65l-1.7-17c-.07-.73-.2-1.27-.36-1.6-.17-.33-.44-.54-.81-.64-.37-.1-.93-.11-1.69-.03-.07,0-.12-.06-.13-.21-.01-.15.01-.22.09-.23l1.95-.16c1.13-.06,2.03-.13,2.69-.2,1-.1,2.03-.24,3.07-.42,1.27-.18,2.12-.29,2.56-.33,2.47-.25,4.72.02,6.74.81,2.02.79,3.64,1.97,4.86,3.55s1.94,3.43,2.15,5.53c.24,2.37-.1,4.53-1,6.46-.91,1.93-2.23,3.49-3.98,4.66-1.75,1.18-3.72,1.87-5.93,2.1-.78.08-1.72.13-2.8.17Zm6.38-2.59c1.12-.92,1.94-2.19,2.45-3.82.51-1.63.67-3.54.45-5.72-.21-2.08-.72-3.94-1.52-5.58-.81-1.64-1.85-2.89-3.12-3.75-1.27-.86-2.68-1.21-4.22-1.06-1.52.15-2.54.4-3.08.75-.53.35-.75,1-.66,1.96l1.66,16.52c.1.98.42,1.65.98,2,.55.35,1.57.45,3.04.31,1.57-.16,2.91-.69,4.03-1.61Z"/>
      <path class="cls-3" d="m169.82,206.89c.06.13.05.22-.01.25-.81.35-1.43,1.05-1.86,2.1-.43,1.05-.6,2.28-.52,3.69l1.05,19.43c.02.1-.09.2-.31.3-.23.1-.37.11-.43.03l-16.62-14.52c-.76-.63-1.43-1.06-2.01-1.28-.58-.22-1.11-.22-1.61,0-.07.03-.13-.02-.19-.16-.06-.13-.06-.22.01-.25.34-.15.58-.24.72-.28.47-.15,1.07-.38,1.79-.7,1.94-.85,3.57-1.59,4.91-2.23.35-.18.8-.39,1.34-.62.07-.03.13.02.19.16.06.13.06.22-.01.25-.68.3-1.14.67-1.39,1.11-.25.44-.26.92-.03,1.44.17.38.49.79.98,1.22l11.3,9.92-.68-13.52c-.05-.73-.17-1.32-.37-1.77-.3-.7-.76-1.16-1.35-1.38-.6-.22-1.29-.16-2.08.18-.07.03-.13-.02-.19-.16-.06-.14-.05-.22.01-.25l1.67-.69c.97-.37,1.82-.71,2.56-1.04.43-.19.95-.44,1.56-.76l1.37-.64c.07-.03.13.02.19.16Z"/>
      <path class="cls-3" d="m186.55,220.76c.29.22.62.28.99.19.37-.09.88-.36,1.54-.79.06-.04.13,0,.21.12.08.12.09.21.03.25-.68.45-1.22.79-1.62,1.03l-2.36,1.51-2.26,1.53c-.4.29-.94.67-1.64,1.13-.04.03-.1-.02-.18-.14s-.1-.2-.06-.22c.66-.43,1.11-.8,1.35-1.11.24-.31.32-.65.24-1.02-.08-.37-.33-.87-.73-1.48l-9.4-14.26c-.41-.62-.76-1.03-1.06-1.24-.3-.21-.65-.27-1.03-.18-.38.09-.9.35-1.56.79-.04.03-.1-.02-.18-.14-.08-.12-.1-.2-.06-.23l1.68-1.07c.97-.58,1.75-1.06,2.32-1.44.64-.42,1.41-.96,2.33-1.63l1.55-1.07c.06-.04.13,0,.21.12.08.12.09.21.03.25-.64.42-1.07.79-1.3,1.12-.23.33-.29.67-.2,1.04.09.37.34.86.75,1.47l9.36,14.2c.42.64.78,1.06,1.07,1.28Z"/>
      <path class="cls-3" d="m182.56,205.5c.03.07,0,.14-.1.22-.1.07-.17.08-.22.03-.6-.79-1.39-1.79-2.36-3.02-.98-1.23-1.73-2.12-2.27-2.7-.08-.09-.08-.18.02-.27.1-.09.19-.09.27,0,.37.4,1.07.11,2.09-.84,1.6-1.39,3.43-3.05,5.5-4.98,1.06-.99,2.17-2.06,3.32-3.2l1.81-1.74c.68-.64,1.14-1.15,1.37-1.53.23-.38.27-.75.1-1.11-.05-.09-.02-.18.08-.27.1-.09.18-.1.25-.03.45.59,1.2,1.51,2.24,2.75,1.04,1.25,1.9,2.23,2.57,2.95.05.05.03.12-.06.21s-.17.11-.24.07c-1.56-1.13-3.03-1.7-4.42-1.71-1.38,0-2.62.5-3.7,1.5-.52.49-.76.92-.72,1.31.04.38.35.89.94,1.52l11.6,12.44c.52.56.95.91,1.29,1.06.34.15.71.13,1.1-.07.39-.19.92-.6,1.58-1.22.05-.05.13-.02.23.08s.12.19.07.24c-.65.6-1.17,1.07-1.56,1.41l-2.26,2.06-2.16,2.07c-.36.37-.87.87-1.54,1.49-.05.05-.13.02-.23-.09-.1-.11-.12-.19-.07-.24.65-.6,1.09-1.1,1.32-1.48.23-.38.28-.76.16-1.13-.13-.37-.44-.82-.94-1.36l-11.66-12.49c-.57-.61-1.04-.95-1.4-1.01s-.8.14-1.3.61c-2.14,2-2.38,4.83-.71,8.48Z"/>
      <path class="cls-3" d="m226.2,178.46c.12.08.15.17.08.28-.27.41-.72,1.03-1.33,1.86-.64.87-1.09,1.5-1.35,1.89-.34.51-.74,1.15-1.19,1.91-.42.72-.77,1.29-1.04,1.7-.05.08-.14.08-.27,0-.12-.08-.16-.16-.1-.25.36-.53.55-.95.6-1.26.04-.31-.08-.56-.36-.75-.35-.23-1.07-.42-2.16-.55l-5.54-.68-5.04,7.55,1.87,2.98c.42.66.88,1.16,1.39,1.5.74.49,1.48.61,2.24.36.76-.25,1.43-.81,2.02-1.69.07-.1.16-.11.29-.03.12.08.15.17.08.28-.25.37-.62.89-1.13,1.56-.56.75-1.03,1.41-1.41,1.98-.37.55-.79,1.23-1.27,2.04-.42.72-.78,1.3-1.06,1.73-.05.08-.14.08-.27,0-.12-.08-.16-.16-.1-.25.38-.57.58-1.13.61-1.68.03-.54-.14-1.21-.48-2-.34-.79-.93-1.85-1.76-3.17l-10.2-16.43c-.03-.08,0-.19.09-.34.11-.16.2-.23.28-.21l20.22,2.4c1.93.25,3.33.33,4.2.23.87-.1,1.47-.41,1.81-.92.07-.1.16-.11.29-.03Zm-18.29,10.73l4.46-6.69-9.35-1.14,4.89,7.83Z"/>
      <path class="cls-3" d="m237.43,146.83c.14.05.2.09.19.14-.26.79-.48,1.42-.66,1.88l-.89,2.58-.84,2.64c-.12.45-.31,1.06-.57,1.83-.02.07-.11.08-.25.03-.14-.05-.2-.1-.17-.17.33-.98.43-1.69.31-2.11-.12-.43-.55-.77-1.3-1.01l-.61-.16-14.57-4.02,14.52,12.82c.08.08.09.19.05.33-.05.14-.12.22-.23.23l-19.78,3.27,12.55,4.47c1.25.44,2.32.52,3.21.23.89-.29,1.49-.91,1.81-1.87.02-.07.1-.08.24-.04.14.05.2.1.18.18-.21.63-.38,1.12-.52,1.46l-.67,1.91-.7,2.22c-.1.38-.25.89-.46,1.52-.02.07-.11.08-.25.03s-.2-.1-.17-.17c.32-.96.21-1.84-.33-2.64-.54-.8-1.42-1.42-2.65-1.85l-14.39-5.12-.05.02c-1.02.18-1.81.46-2.37.83-.56.37-.95.88-1.17,1.54-.02.07-.1.08-.25.04-.14-.05-.2-.1-.18-.17l.58-1.63c.13-.32.28-.74.45-1.25l.58-1.87c.05-.22.12-.49.23-.82.1-.3.28-.5.55-.6.26-.09.87-.23,1.81-.41l16.86-2.88-13.06-11.72c-.28-.25-.46-.47-.54-.66-.08-.19-.07-.42.01-.68.07-.21.16-.45.27-.71.11-.26.23-.57.34-.92l.65-2.08c.08-.33.23-.81.43-1.41.02-.07.11-.08.24-.04.14.05.2.1.18.17-.36,1.1-.41,1.96-.12,2.6.28.64.9,1.09,1.84,1.35l16.18,4.43c.74.19,1.29.28,1.66.26.37-.02.67-.18.9-.48.23-.3.46-.81.7-1.54.02-.05.09-.05.23,0Z"/>
      <path class="cls-4" d="m97.26,150.09c-.44-.67-.67-1.37-.69-2.1-.02-.73.16-1.42.54-2.08.41-.7.95-1.22,1.65-1.55.69-.34,1.45-.47,2.29-.39.83.08,1.66.35,2.47.82.35.21.69.44,1.01.7.32.26.56.5.73.71.06.08.1.13.1.15,0,.02-.03.09-.08.2l-.75,1.62s-.04.03-.09,0c-.04-.02-.06-.04-.05-.08.04-.3.04-.65,0-1.06s-.18-.82-.4-1.24c-.22-.41-.56-.75-1.02-1.02-.47-.27-.98-.39-1.52-.36-.54.03-1.06.22-1.56.57-.5.35-.94.84-1.3,1.47-.4.69-.63,1.38-.68,2.08s.06,1.33.35,1.9c.29.57.72,1.03,1.31,1.36.3.17.55.28.75.3s.39-.03.58-.18c.19-.15.39-.41.6-.79.22-.38.35-.66.4-.84.04-.18,0-.33-.11-.47-.11-.13-.35-.31-.71-.52-.04-.03-.05-.07-.02-.13.01-.02.03-.04.05-.05.02-.01.04-.01.05,0,.6.4,1.1.71,1.49.94.38.22.77.43,1.19.65.03.02.03.05,0,.11-.03.05-.06.07-.09.05-.13-.08-.24-.12-.32-.09s-.19.12-.3.28c-.11.16-.29.45-.53.87-.19.33-.32.57-.37.73-.06.16-.09.25-.12.29-.03.04-.05.07-.07.08-.02,0-.06,0-.12-.01-1.07-.34-1.98-.74-2.74-1.18-.84-.49-1.48-1.07-1.91-1.74Z"/>
      <path class="cls-4" d="m110.17,153.86s.05.02.06.04c.02.02.02.03.02.04-.28.61-.5,1.17-.67,1.69-.02.06-.05.11-.08.13-.03.02-.09.02-.16,0l-5.38-1.71s-.03-.04-.01-.08.04-.07.06-.06c.26.08.45.12.58.12.13,0,.23-.06.31-.16.08-.1.16-.28.23-.52l1.79-5.63c.08-.24.11-.43.11-.55,0-.13-.06-.23-.17-.31-.11-.08-.29-.17-.54-.25-.02,0-.03-.04-.01-.08.02-.05.04-.07.06-.06l5.16,1.64c.08.03.11.08.09.15l-.49,1.63s-.03.02-.08.01c-.05,0-.07-.02-.07-.05.02-.51-.09-.93-.32-1.25-.24-.32-.61-.57-1.11-.73l-.37-.12c-.24-.08-.44-.08-.59-.01-.15.07-.26.21-.32.43l-.79,2.48,1.01.32c.47.15.86.18,1.16.1.3-.08.5-.27.59-.56,0-.02.03-.03.08-.01.04.01.06.03.06.06l-.36,1.09-.17.59c-.07.28-.13.5-.18.66,0,.02-.03.02-.08,0-.05-.02-.07-.03-.06-.05.11-.33.06-.63-.13-.91-.2-.27-.53-.48-1.01-.63l-1-.32-.87,2.75c-.07.24-.08.42-.03.57.05.14.18.24.37.3l.4.13c.63.2,1.18.23,1.64.09.46-.14.87-.45,1.22-.94,0-.02.02-.02.06,0Z"/>
      <path class="cls-4" d="m120.87,149.25c0,.05-.01.08-.03.07-.34-.03-.62.08-.84.33-.22.25-.35.6-.39,1.05l-.57,6.51s-.02.04-.06.04c-.04,0-.07,0-.08-.02l-5.36-7.32-.44,4.95c-.04.45.02.81.19,1.09.16.28.41.43.74.46.02,0,.02.03.02.08s-.02.08-.03.07c-.24-.02-.42-.04-.55-.06l-.69-.07-.79-.06c-.15,0-.35-.02-.62-.04-.03,0-.04-.03-.03-.08s.02-.08.05-.07c.37.03.68-.07.92-.32.24-.24.38-.59.42-1.04l.47-5.38c-.25-.33-.47-.56-.66-.69-.19-.13-.39-.21-.6-.23-.02,0-.02-.03-.02-.08,0-.05.01-.08.03-.07l.53.06c.11.02.27.04.48.06l.97.07c.12,0,.26.01.43.03.07,0,.12.03.15.07.03.04.08.11.16.23.13.21.22.35.27.42l3.95,5.46.36-4.11c.04-.46-.02-.83-.18-1.11-.16-.28-.41-.43-.74-.46-.02,0-.02-.03-.02-.08,0-.05.02-.08.03-.07l.55.06c.27.04.5.07.68.09.17.02.41.03.71.04l.57.04s.02.03.02.08Z"/>
      <path class="cls-4" d="m127.18,154.12s.05,0,.07,0c.02.01.03.02.04.03,0,.67.04,1.27.11,1.81,0,.07,0,.12-.02.15-.02.03-.07.05-.15.06l-5.59.74s-.04-.02-.05-.07c0-.05,0-.08.03-.08.27-.04.46-.08.58-.14.12-.06.19-.15.21-.28.03-.13.02-.32-.01-.57l-.77-5.86c-.03-.25-.08-.44-.14-.55s-.15-.18-.29-.21c-.13-.03-.33-.03-.59,0-.03,0-.04-.02-.05-.07s0-.08.03-.08l5.37-.71c.08-.01.13.02.14.1l.25,1.68s-.02.03-.06.05c-.05.01-.07,0-.09-.01-.2-.47-.47-.8-.83-1-.35-.19-.79-.26-1.31-.19l-.38.05c-.25.03-.43.11-.54.24-.1.13-.14.3-.11.53l.34,2.58,1.05-.14c.49-.06.85-.2,1.09-.4.24-.2.34-.46.3-.76,0-.02.02-.04.07-.05.05,0,.07,0,.07.03l.14,1.14.09.6c.06.29.09.51.12.68,0,.02-.02.03-.07.04-.05,0-.08,0-.08-.02-.05-.35-.21-.6-.51-.76-.29-.16-.69-.21-1.18-.15l-1.04.14.38,2.86c.03.25.1.42.21.53.11.11.26.15.47.12l.42-.06c.66-.09,1.17-.29,1.53-.61.36-.32.6-.78.71-1.37,0-.02.01-.03.05-.03Zm-4.97-7.18c.19-.12.4-.24.65-.34.25-.11.39-.14.44-.1l.66.43c.41.27.78.5,1.09.68.03,0,.04.02.04.05,0,.03,0,.05-.02.07-.02.02-.04.03-.06.02-1-.3-1.98-.5-2.94-.6-.1,0-.06-.07.12-.19Z"/>
      <path class="cls-4" d="m134.29,145.68s.01.08-.01.08c-.29.1-.52.33-.69.68-.17.35-.27.77-.27,1.26l-.14,6.73s-.04.07-.12.09-.13.03-.15,0l-5.36-5.44c-.25-.24-.47-.4-.66-.49-.19-.09-.38-.1-.56-.04-.02,0-.04-.01-.06-.06-.02-.05-.01-.08,0-.08.12-.04.21-.07.26-.08.17-.04.38-.1.64-.2.69-.24,1.27-.46,1.75-.64.13-.05.29-.11.48-.18.02,0,.04.01.06.06.02.05.01.08-.01.08-.24.08-.41.2-.51.35-.1.15-.11.31-.05.5.05.14.15.29.31.45l3.64,3.71.12-4.68c0-.25-.03-.46-.08-.62-.09-.25-.23-.42-.43-.51-.2-.09-.44-.09-.72,0-.02,0-.04-.01-.06-.06s-.01-.08.01-.09l.59-.19c.34-.1.65-.2.91-.29.15-.05.34-.13.56-.22l.49-.18s.05.01.06.06Z"/>
      <path class="cls-4" d="m141.87,147.72s.05-.02.07-.02c.03,0,.04,0,.04.01.27.61.55,1.15.83,1.62.04.06.05.11.04.15,0,.04-.04.08-.11.12l-4.83,2.92s-.05,0-.07-.05c-.03-.04-.03-.07,0-.09.23-.14.39-.26.48-.36.08-.1.11-.21.08-.34-.03-.13-.11-.3-.24-.52l-3.06-5.06c-.13-.22-.25-.37-.35-.45-.1-.08-.21-.11-.35-.08-.13.03-.31.11-.54.24-.02.01-.05,0-.07-.05-.03-.04-.03-.07,0-.09l4.63-2.8c.07-.04.13-.03.17.03l.9,1.44s0,.04-.04.07c-.04.03-.06.04-.08.02-.37-.35-.76-.55-1.16-.58-.4-.04-.83.08-1.28.35l-.33.2c-.22.13-.35.28-.39.43-.04.16,0,.33.11.53l1.35,2.23.91-.55c.42-.26.7-.52.84-.81.14-.28.13-.55-.03-.82-.01-.02,0-.04.04-.07.04-.02.07-.03.08,0l.58.99.33.52c.17.24.29.43.38.58,0,.02,0,.04-.05.06-.04.03-.07.03-.08.02-.18-.3-.44-.46-.77-.5-.33-.03-.71.08-1.14.34l-.9.54,1.49,2.47c.13.21.26.34.4.4.14.05.3.03.47-.08l.36-.22c.57-.34.95-.73,1.15-1.17.2-.44.24-.95.1-1.54,0-.02,0-.03.03-.05Z"/>
    </g>
  </g>
</svg>